<?xml version="1.0" encoding="utf-8"?>
<!-- Generator: Adobe Illustrator 27.0.1, SVG Export Plug-In . SVG Version: 6.00 Build 0)  -->
<svg version="1.1" id="Layer_2_00000079453192867491855130000004404390715440703904_"
	 xmlns="http://www.w3.org/2000/svg" xmlns:xlink="http://www.w3.org/1999/xlink" x="0px" y="0px" viewBox="0 0 26.2 7.9"
	 style="enable-background:new 0 0 26.2 7.9;" xml:space="preserve">
<style type="text/css">
	.st0{fill:#FFFFFF;}
</style>
<g id="g">
	<g id="shapes">
		<g>
			<polygon class="st0" points="21.8,6.5 21.8,7.9 22.2,7.9 26.2,3.9 22.2,0 21.8,0 21.8,1.4 24.4,4 			"/>
			<polygon class="st0" points="19.4,6.5 19.4,7.9 19.8,7.9 23.8,3.9 19.8,0 19.4,0 19.4,1.4 21.9,4 			"/>
			<polygon class="st0" points="17,6.5 17,7.9 17.4,7.9 21.3,3.9 17.4,0 17,0 17,1.4 19.5,4 			"/>
			<polygon class="st0" points="14.5,6.5 14.5,7.9 15,7.9 18.9,3.9 15,0 14.5,0 14.5,1.4 17.1,4 			"/>
			<polygon class="st0" points="12.1,6.5 12.1,7.9 12.6,7.9 16.5,3.9 12.6,0 12.1,0 12.1,1.4 14.7,4 			"/>
			<polygon class="st0" points="9.7,6.5 9.7,7.9 10.1,7.9 14.1,3.9 10.1,0 9.7,0 9.7,1.4 12.2,4 			"/>
			<polygon class="st0" points="7.3,6.5 7.3,7.9 7.7,7.9 11.6,3.9 7.7,0 7.3,0 7.3,1.4 9.8,4 			"/>
			<polygon class="st0" points="4.9,6.5 4.9,7.9 5.3,7.9 9.2,3.9 5.3,0 4.9,0 4.9,1.4 7.4,4 			"/>
			<polygon class="st0" points="2.4,6.5 2.4,7.9 2.9,7.9 6.8,3.9 2.9,0 2.4,0 2.4,1.4 5,4 			"/>
			<polygon class="st0" points="0,6.5 0,7.9 0.4,7.9 4.4,3.9 0.4,0 0,0 0,1.4 2.6,4 			"/>
		</g>
	</g>
</g>
</svg>
