<?xml version="1.0" encoding="UTF-8"?>
<svg id="Layer_2" data-name="Layer 2" xmlns="http://www.w3.org/2000/svg" xmlns:xlink="http://www.w3.org/1999/xlink" viewBox="0 0 16.86 17.47">
  <defs>
    <style>
      .cls-1 {
        fill: url(#_횁책챌청챙첼챠챠청챕_찾챨횪채챔책챠챵_96-19);
      }

      .cls-2 {
        fill: url(#_횁책챌청챙첼챠챠청챕_찾챨횪채챔책챠챵_96-7);
      }

      .cls-3 {
        fill: url(#_횁책챌청챙첼챠챠청챕_찾챨횪채챔책챠챵_96-17);
      }

      .cls-4 {
        fill: url(#_횁책챌청챙첼챠챠청챕_찾챨횪채챔책챠챵_96-26);
      }

      .cls-5 {
        fill: url(#_횁책챌청챙첼챠챠청챕_찾챨횪채챔책챠챵_96-22);
      }

      .cls-6 {
        fill: url(#_횁책챌청챙첼챠챠청챕_찾챨횪채챔책챠챵_96-20);
      }

      .cls-7 {
        fill: url(#_횁책챌청챙첼챠챠청챕_찾챨횪채챔책챠챵_96-2);
      }

      .cls-8 {
        fill: url(#_횁책챌청챙첼챠챠청챕_찾챨횪채챔책챠챵_96-15);
      }

      .cls-9 {
        fill: url(#_횁책챌청챙첼챠챠청챕_찾챨횪채챔책챠챵_96-8);
      }

      .cls-10 {
        fill: url(#_횁책챌청챙첼챠챠청챕_찾챨횪채챔책챠챵_96-21);
      }

      .cls-11 {
        fill: url(#_횁책챌청챙첼챠챠청챕_찾챨횪채챔책챠챵_96-14);
      }

      .cls-12 {
        fill: url(#_횁책챌청챙첼챠챠청챕_찾챨횪채챔책챠챵_96-24);
      }

      .cls-13 {
        fill: url(#_횁책챌청챙첼챠챠청챕_찾챨횪채챔책챠챵_96-12);
      }

      .cls-14 {
        fill: url(#_횁책챌청챙첼챠챠청챕_찾챨횪채챔책챠챵_96-13);
      }

      .cls-15 {
        fill: url(#_횁책챌청챙첼챠챠청챕_찾챨횪채챔책챠챵_96-25);
      }

      .cls-16 {
        fill: url(#_횁책챌청챙첼챠챠청챕_찾챨횪채챔책챠챵_96-3);
      }

      .cls-17 {
        fill: url(#_횁책챌청챙첼챠챠청챕_찾챨횪채챔책챠챵_96-11);
      }

      .cls-18 {
        fill: url(#_횁책챌청챙첼챠챠청챕_찾챨횪채챔책챠챵_96-16);
      }

      .cls-19 {
        fill: url(#_횁책챌청챙첼챠챠청챕_찾챨횪채챔책챠챵_96-23);
      }

      .cls-20 {
        fill: url(#_횁책챌청챙첼챠챠청챕_찾챨횪채챔책챠챵_96);
      }

      .cls-21 {
        fill: url(#_횁책챌청챙첼챠챠청챕_찾챨횪채챔책챠챵_96-9);
      }

      .cls-22 {
        fill: url(#_횁책챌청챙첼챠챠청챕_찾챨횪채챔책챠챵_96-6);
      }

      .cls-23 {
        fill: url(#_횁책챌청챙첼챠챠청챕_찾챨횪채챔책챠챵_96-18);
      }

      .cls-24 {
        fill: url(#_횁책챌청챙첼챠챠청챕_찾챨횪채챔책챠챵_96-4);
      }

      .cls-25 {
        fill: url(#_횁책챌청챙첼챠챠청챕_찾챨횪채챔책챠챵_96-10);
      }

      .cls-26 {
        fill: url(#_횁책챌청챙첼챠챠청챕_찾챨횪채챔책챠챵_96-5);
      }
    </style>
    <linearGradient id="_횁책챌청챙첼챠챠청챕_찾챨횪채챔책챠챵_96" data-name="횁책챌청챙첼챠챠청챕 찾챨횪채챔책챠챵 96" x1="1.47" y1="13.09" x2="4.45" y2="13.09" gradientUnits="userSpaceOnUse">
      <stop offset="0" stop-color="#ffdc54"/>
      <stop offset=".06" stop-color="#ffce51"/>
      <stop offset=".27" stop-color="#ffa34a"/>
      <stop offset=".47" stop-color="#ff8244"/>
      <stop offset=".67" stop-color="#ff6a40"/>
      <stop offset=".85" stop-color="#ff5b3d"/>
      <stop offset="1" stop-color="#ff573d"/>
    </linearGradient>
    <linearGradient id="_횁책챌청챙첼챠챠청챕_찾챨횪채챔책챠챵_96-2" data-name="횁책챌청챙첼챠챠청챕 찾챨횪채챔책챠챵 96" x1=".16" y1="13.48" x2="5.23" y2="13.48" xlink:href="#_횁책챌청챙첼챠챠청챕_찾챨횪채챔책챠챵_96"/>
    <linearGradient id="_횁책챌청챙첼챠챠청챕_찾챨횪채챔책챠챵_96-3" data-name="횁책챌청챙첼챠챠청챕 찾챨횪채챔책챠챵 96" x1="0" y1="13.13" x2="5.95" y2="13.13" xlink:href="#_횁책챌청챙첼챠챠청챕_찾챨횪채챔책챠챵_96"/>
    <linearGradient id="_횁책챌청챙첼챠챠청챕_찾챨횪채챔책챠챵_96-4" data-name="횁책챌청챙첼챠챠청챕 찾챨횪채챔책챠챵 96" x1=".04" y1="12.74" x2="6.96" y2="12.74" xlink:href="#_횁책챌청챙첼챠챠청챕_찾챨횪채챔책챠챵_96"/>
    <linearGradient id="_횁책챌청챙첼챠챠청챕_찾챨횪채챔책챠챵_96-5" data-name="횁책챌청챙첼챠챠청챕 찾챨횪채챔책챠챵 96" x1=".19" y1="12.35" x2="7.87" y2="12.35" xlink:href="#_횁책챌청챙첼챠챠청챕_찾챨횪채챔책챠챵_96"/>
    <linearGradient id="_횁책챌청챙첼챠챠청챕_찾챨횪채챔책챠챵_96-6" data-name="횁책챌청챙첼챠챠청챕 찾챨횪채챔책챠챵 96" x1=".4" y1="11.96" x2="8.7" y2="11.96" xlink:href="#_횁책챌청챙첼챠챠청챕_찾챨횪채챔책챠챵_96"/>
    <linearGradient id="_횁책챌청챙첼챠챠청챕_찾챨횪채챔책챠챵_96-7" data-name="횁책챌청챙첼챠챠청챕 찾챨횪채챔책챠챵 96" x1=".67" y1="11.56" x2="9.48" y2="11.56" xlink:href="#_횁책챌청챙첼챠챠청챕_찾챨횪채챔책챠챵_96"/>
    <linearGradient id="_횁책챌청챙첼챠챠청챕_찾챨횪채챔책챠챵_96-8" data-name="횁책챌청챙첼챠챠청챕 찾챨횪채챔책챠챵 96" x1=".99" y1="11.17" x2="10.21" y2="11.17" xlink:href="#_횁책챌청챙첼챠챠청챕_찾챨횪채챔책챠챵_96"/>
    <linearGradient id="_횁책챌청챙첼챠챠청챕_찾챨횪채챔책챠챵_96-9" data-name="횁책챌청챙첼챠챠청챕 찾챨횪채챔책챠챵 96" x1="1.36" y1="10.78" x2="10.9" y2="10.78" xlink:href="#_횁책챌청챙첼챠챠청챕_찾챨횪채챔책챠챵_96"/>
    <linearGradient id="_횁책챌청챙첼챠챠청챕_찾챨횪채챔책챠챵_96-10" data-name="횁책챌청챙첼챠챠청챕 찾챨횪채챔책챠챵 96" x1="1.75" y1="10.38" x2="11.55" y2="10.38" xlink:href="#_횁책챌청챙첼챠챠청챕_찾챨횪채챔책챠챵_96"/>
    <linearGradient id="_횁책챌청챙첼챠챠청챕_찾챨횪채챔책챠챵_96-11" data-name="횁책챌청챙첼챠챠청챕 찾챨횪채챔책챠챵 96" x1="2.19" y1="9.99" x2="12.16" y2="9.99" xlink:href="#_횁책챌청챙첼챠챠청챕_찾챨횪채챔책챠챵_96"/>
    <linearGradient id="_횁책챌청챙첼챠챠청챕_찾챨횪채챔책챠챵_96-12" data-name="횁책챌청챙첼챠챠청챕 찾챨횪채챔책챠챵 96" x1="2.65" y1="9.6" x2="12.75" y2="9.6" xlink:href="#_횁책챌청챙첼챠챠청챕_찾챨횪채챔책챠챵_96"/>
    <linearGradient id="_횁책챌청챙첼챠챠청챕_찾챨횪채챔책챠챵_96-13" data-name="횁책챌청챙첼챠챠청챕 찾챨횪채챔책챠챵 96" x1="3.15" y1="9.2" x2="13.3" y2="9.2" xlink:href="#_횁책챌청챙첼챠챠청챕_찾챨횪채챔책챠챵_96"/>
    <linearGradient id="_횁책챌청챙첼챠챠청챕_찾챨횪채챔책챠챵_96-14" data-name="횁책챌청챙첼챠챠청챕 찾챨횪채챔책챠챵 96" x1="3.68" y1="8.81" x2="13.82" y2="8.81" xlink:href="#_횁책챌청챙첼챠챠청챕_찾챨횪채챔책챠챵_96"/>
    <linearGradient id="_횁책챌청챙첼챠챠청챕_찾챨횪채챔책챠챵_96-15" data-name="횁책챌청챙첼챠챠청챕 찾챨횪채챔책챠챵 96" x1="4.24" y1="8.42" x2="14.31" y2="8.42" xlink:href="#_횁책챌청챙첼챠챠청챕_찾챨횪채챔책챠챵_96"/>
    <linearGradient id="_횁책챌청챙첼챠챠청챕_찾챨횪채챔책챠챵_96-16" data-name="횁책챌청챙첼챠챠청챕 찾챨횪채챔책챠챵 96" x1="4.83" y1="8.02" x2="14.77" y2="8.02" xlink:href="#_횁책챌청챙첼챠챠청챕_찾챨횪채챔책챠챵_96"/>
    <linearGradient id="_횁책챌청챙첼챠챠청챕_찾챨횪채챔책챠챵_96-17" data-name="횁책챌청챙첼챠챠청챕 찾챨횪채챔책챠챵 96" x1="5.45" y1="7.63" x2="15.2" y2="7.63" xlink:href="#_횁책챌청챙첼챠챠청챕_찾챨횪채챔책챠챵_96"/>
    <linearGradient id="_횁책챌청챙첼챠챠청챕_찾챨횪채챔책챠챵_96-18" data-name="횁책챌청챙첼챠챠청챕 찾챨횪채챔책챠챵 96" x1="6.11" y1="7.24" x2="15.59" y2="7.24" xlink:href="#_횁책챌청챙첼챠챠청챕_찾챨횪채챔책챠챵_96"/>
    <linearGradient id="_횁책챌청챙첼챠챠청챕_찾챨횪채챔책챠챵_96-19" data-name="횁책챌청챙첼챠챠청챕 찾챨횪채챔책챠챵 96" x1="6.8" y1="6.84" x2="15.94" y2="6.84" xlink:href="#_횁책챌청챙첼챠챠청챕_찾챨횪채챔책챠챵_96"/>
    <linearGradient id="_횁책챌청챙첼챠챠청챕_찾챨횪채챔책챠챵_96-20" data-name="횁책챌청챙첼챠챠청챕 찾챨횪채챔책챠챵 96" x1="7.54" y1="6.45" x2="16.25" y2="6.45" xlink:href="#_횁책챌청챙첼챠챠청챕_찾챨횪채챔책챠챵_96"/>
    <linearGradient id="_횁책챌청챙첼챠챠청챕_찾챨횪채챔책챠챵_96-21" data-name="횁책챌청챙첼챠챠청챕 찾챨횪채챔책챠챵 96" x1="8.33" y1="6.06" x2="16.52" y2="6.06" xlink:href="#_횁책챌청챙첼챠챠청챕_찾챨횪채챔책챠챵_96"/>
    <linearGradient id="_횁책챌청챙첼챠챠청챕_찾챨횪채챔책챠챵_96-22" data-name="횁책챌청챙첼챠챠청챕 찾챨횪채챔책챠챵 96" x1="9.18" y1="5.66" x2="16.72" y2="5.66" xlink:href="#_횁책챌청챙첼챠챠청챕_찾챨횪채챔책챠챵_96"/>
    <linearGradient id="_횁책챌청챙첼챠챠청챕_찾챨횪채챔책챠챵_96-23" data-name="횁책챌청챙첼챠챠청챕 찾챨횪채챔책챠챵 96" x1="10.2" y1="5.22" x2="16.84" y2="5.22" xlink:href="#_횁책챌청챙첼챠챠청챕_찾챨횪채챔책챠챵_96"/>
    <linearGradient id="_횁책챌청챙첼챠챠청챕_찾챨횪채챔책챠챵_96-24" data-name="횁책챌청챙첼챠챠청챕 찾챨횪채챔책챠챵 96" x1="11.66" y1="4.58" x2="16.86" y2="4.58" xlink:href="#_횁책챌청챙첼챠챠청챕_찾챨횪채챔책챠챵_96"/>
    <linearGradient id="_횁책챌청챙첼챠챠청챕_찾챨횪채챔책챠챵_96-25" data-name="횁책챌청챙첼챠챠청챕 찾챨횪채챔책챠챵 96" x1="13.9" y1="3.68" x2="16.7" y2="3.68" xlink:href="#_횁책챌청챙첼챠챠청챕_찾챨횪채챔책챠챵_96"/>
    <linearGradient id="_횁책챌청챙첼챠챠청챕_찾챨횪채챔책챠챵_96-26" data-name="횁책챌청챙첼챠챠청챕 찾챨횪채챔책챠챵 96" x1="15.67" y1="3.08" x2="16.16" y2="3.08" xlink:href="#_횁책챌청챙첼챠챠청챕_찾챨횪채챔책챠챵_96"/>
  </defs>
  <g id="g" data-name="g">
    <g id="elements">
      <g>
        <path class="cls-20" d="M4.14,14.74h-.1c.03-.28,.09-.56,.15-.82,.14-.63,.27-1.22,0-1.79-.3-.65-1-.61-1.74-.57-.33,.02-.67,.04-.97-.01l.02-.1c.28,.05,.62,.03,.95,.01,.74-.04,1.51-.08,1.84,.63,.29,.6,.15,1.24,0,1.86-.06,.26-.12,.54-.15,.8Z"/>
        <path class="cls-7" d="M4.73,16.57c-.42-1.31-.08-2.64,.25-3.93,.03-.12,.06-.24,.09-.35,.08-.35,.09-.83-.15-1.12-.13-.16-.33-.24-.59-.23-.27,.01-.54,.03-.8,.05-.4,.03-.81,.06-1.21,.06-.76,0-1.5-.11-2.17-.56l.06-.09c.99,.66,2.17,.57,3.31,.48,.26-.02,.54-.04,.8-.05,.29-.01,.52,.08,.67,.27,.26,.32,.26,.83,.17,1.21-.03,.12-.06,.24-.09,.36-.33,1.27-.66,2.59-.25,3.87l-.1,.03Z"/>
        <path class="cls-16" d="M5.87,17.08s-.17-.22-.43-.58h0c-.31-.54-.44-1.16-.39-1.9,.05-.65,.22-1.3,.39-1.94,.06-.24,.12-.47,.18-.69,0-.03,.02-.06,.02-.09,.1-.39,.2-.79,0-1.16-.14-.25-.43-.35-.9-.32h0c-.32,.01-.66,.05-1,.08-.41,.04-.83,.09-1.24,.09-.76,0-1.47-.15-2.04-.76h0c-.29-.35-.45-.57-.45-.57l.08-.06s.17,.22,.45,.56c.84,.89,2.03,.76,3.19,.63,.33-.04,.68-.07,1-.08,.33-.02,.79-.01,1,.37,.22,.41,.11,.83,0,1.23,0,.03-.02,.06-.02,.09-.05,.23-.11,.45-.18,.7-.34,1.28-.69,2.6-.01,3.75,.27,.36,.43,.58,.43,.58l-.08,.06Z"/>
        <path class="cls-24" d="M6.88,17.33l-.51-.68c-.16-.21-.35-.47-.55-.76h0c-.43-.76-.3-1.69-.2-2.43,.05-.36,.18-.72,.3-1.07,.26-.73,.5-1.42,.15-2.13-.21-.44-.75-.37-1.23-.3-.08,.01-.15,.02-.22,.03-.18,.02-.37,.04-.55,.06-1.02,.12-2.08,.24-2.9-.44h0c-.26-.24-.46-.5-.62-.71L.04,8.21l.08-.06,.51,.68c.16,.21,.35,.46,.6,.7,.79,.65,1.83,.53,2.83,.42,.18-.02,.37-.04,.55-.06,.07,0,.14-.02,.22-.03,.25-.03,.52-.07,.75-.04,.28,.04,.47,.17,.58,.4,.37,.74,.11,1.49-.15,2.21-.12,.35-.25,.71-.3,1.05-.1,.73-.23,1.64,.18,2.36,.2,.29,.39,.55,.55,.76l.51,.68-.08,.06Z"/>
        <path class="cls-26" d="M7.78,17.45l-.9-1.2c-.18-.24-.39-.52-.59-.84-.27-.46-.37-1.03-.3-1.79,.05-.47,.19-.94,.34-1.4,.26-.82,.5-1.59,.21-2.38-.12-.35-.56-.34-.94-.34h-.04c-.35,0-.72,.05-1.08,.1-.93,.12-1.9,.24-2.71-.34h0c-.3-.24-.52-.52-.7-.75L.19,7.31l.08-.06,.9,1.2c.17,.23,.39,.5,.68,.73,.78,.55,1.72,.43,2.63,.32,.36-.04,.74-.09,1.1-.1h.04c.4,0,.89-.01,1.04,.41,.3,.83,.04,1.65-.21,2.45-.14,.45-.29,.91-.33,1.37-.07,.74,.02,1.29,.28,1.72,.19,.32,.4,.59,.58,.83l.9,1.2-.08,.06Z"/>
        <path class="cls-22" d="M8.62,17.47l-1.63-2.17c-.83-1.05-.51-2.3-.2-3.51,.1-.38,.19-.73,.24-1.08,0-.07,.02-.14,.03-.21,.07-.4,.14-.81-.1-1.14h0c-.17-.27-.5-.27-.82-.28-.02,0-.05,0-.07,0-.35,0-.73,.04-1.09,.08-1.04,.11-2.11,.23-2.93-.5h0c-.14-.16-.26-.32-.37-.45L.4,6.5l.08-.06,1.28,1.71c.1,.13,.22,.29,.36,.44,.79,.7,1.84,.58,2.85,.47,.37-.04,.75-.08,1.11-.08,.02,0,.05,0,.07,0,.33,0,.71,0,.91,.32,.25,.37,.18,.82,.11,1.22-.01,.07-.02,.14-.03,.21-.06,.35-.15,.71-.25,1.09-.3,1.18-.61,2.41,.18,3.42l1.63,2.17-.08,.06Z"/>
        <path class="cls-2" d="M9.39,17.41l-2.02-2.7h0c-.71-1.1-.4-2.32-.1-3.5,.14-.55,.29-1.13,.32-1.67,.02-.26-.06-.49-.23-.66-.2-.2-.5-.29-.83-.26-.25,.02-.51,.05-.78,.09-.61,.08-1.24,.16-1.83,.1-.67-.07-1.18-.33-1.56-.79-.11-.15-.22-.29-.32-.42l-1.36-1.82,.08-.06,1.36,1.82c.1,.14,.21,.28,.32,.42,.81,.98,2.07,.81,3.3,.66,.27-.03,.53-.07,.78-.09,.36-.03,.69,.07,.91,.29,.19,.19,.28,.45,.26,.74-.04,.55-.18,1.13-.32,1.69-.29,1.16-.6,2.36,.08,3.42l2.02,2.7-.08,.06Z"/>
        <path class="cls-9" d="M10.12,17.29l-2.12-2.83c-.91-1.14-.58-2.53-.25-3.88,.11-.44,.21-.86,.27-1.26,.05-.34-.04-.64-.26-.85-.24-.23-.6-.34-.98-.28l-.11,.02c-1.35,.21-3.02,.48-3.93-.75L.99,5.11l.08-.06,1.76,2.35c.87,1.18,2.51,.92,3.83,.71l.11-.02c.41-.06,.81,.05,1.07,.31,.24,.24,.34,.57,.29,.94-.06,.41-.16,.83-.27,1.27-.32,1.32-.65,2.69,.23,3.79h0s2.12,2.83,2.12,2.83l-.08,.06Z"/>
        <path class="cls-21" d="M10.81,17.12l-2.19-2.93c-.12-.16-.25-.34-.38-.54h0c-.53-1.03-.3-2.17-.07-3.27,.05-.26,.1-.5,.14-.75,.01-.06,.02-.12,.03-.19,.1-.54,.22-1.21-.25-1.55-.19-.14-.42-.13-.65-.12-.25,.01-.51,.04-.78,.06-.64,.06-1.3,.12-1.91,.03-.69-.11-1.21-.42-1.57-.94l-1.82-2.43,.08-.06,1.82,2.43c.78,1.12,2.11,.99,3.39,.87,.27-.03,.53-.05,.78-.06,.25-.01,.5-.02,.72,.14,.53,.37,.4,1.08,.29,1.65-.01,.07-.02,.13-.03,.19-.04,.25-.09,.5-.14,.75-.22,1.08-.45,2.2,.06,3.2,.12,.19,.25,.37,.37,.53l2.19,2.93-.08,.06Z"/>
        <path class="cls-25" d="M11.46,16.89l-2.52-3.36c-.84-1.16-.55-2.52-.27-3.85,.08-.4,.16-.77,.21-1.14,.05-.43-.05-.84-.27-1.06-.16-.16-.37-.24-.64-.21-.25,.02-.51,.05-.76,.09-.46,.06-.92,.12-1.36,.12-.7,0-1.36-.14-1.92-.66h0c-.13-.15-.25-.31-.35-.44L1.75,3.94l.08-.06,1.83,2.44c.1,.13,.21,.28,.34,.43,.88,.81,2.06,.66,3.2,.51,.25-.03,.51-.07,.76-.09,.3-.03,.54,.06,.72,.25,.24,.25,.35,.68,.3,1.15-.05,.37-.13,.75-.21,1.14-.27,1.3-.56,2.64,.25,3.76l2.52,3.36-.08,.06Z"/>
        <path class="cls-17" d="M12.08,16.62l-2.56-3.42c-.1-.14-.24-.33-.34-.54h0c-.47-1.12-.25-2.29-.04-3.43,.09-.5,.19-1.01,.22-1.51,.02-.27-.07-.51-.26-.68-.22-.2-.56-.3-.9-.25-.19,.02-.37,.05-.57,.08-.56,.08-1.14,.17-1.69,.13-.63-.05-1.13-.26-1.51-.64h0c-.13-.14-.24-.29-.36-.45l-1.87-2.49,.08-.06,1.87,2.49c.12,.16,.23,.3,.35,.43,.83,.82,1.99,.65,3.11,.48,.2-.03,.38-.06,.57-.08,.38-.05,.75,.05,.99,.28,.21,.19,.31,.46,.29,.76-.04,.5-.13,1.02-.22,1.52-.21,1.12-.42,2.28,.04,3.37,.1,.21,.22,.38,.33,.52l2.56,3.42-.08,.06Z"/>
        <path class="cls-13" d="M12.66,16.3l-2.59-3.46c-.12-.16-.25-.34-.36-.53-.45-.77-.35-1.67-.26-2.53,.01-.1,.02-.2,.03-.3,.03-.29,.09-.58,.15-.87,.14-.65,.29-1.31,0-1.95-.14-.32-.55-.35-.84-.34-.34,0-.69,.06-1.04,.11-1.02,.14-2.07,.29-2.85-.51h0c-.13-.15-.25-.3-.36-.45l-1.89-2.52,.08-.06,1.89,2.52c.11,.15,.22,.3,.35,.44,.74,.76,1.77,.61,2.76,.48,.35-.05,.71-.1,1.05-.11,.32,0,.78,.02,.94,.4,.3,.66,.15,1.35,0,2.01-.06,.28-.13,.57-.15,.86,0,.1-.02,.2-.03,.3-.09,.85-.18,1.73,.25,2.47,.11,.19,.23,.36,.35,.52l2.59,3.46-.08,.06Z"/>
        <path class="cls-14" d="M13.21,15.95l-2.61-3.48c-.12-.17-.25-.34-.37-.52h0c-.67-1.18-.43-2.53-.18-3.82,.07-.35,.13-.69,.17-1.02,.05-.38-.06-.74-.29-.98-.21-.21-.49-.3-.81-.27-.24,.03-.48,.07-.73,.11-.52,.09-1.06,.17-1.57,.14-.58-.04-1.04-.24-1.4-.6h0c-.13-.15-.25-.3-.36-.45l-1.9-2.53,.08-.06,1.9,2.53c.11,.15,.23,.3,.36,.44,.78,.78,1.84,.6,2.88,.43,.24-.04,.5-.08,.73-.11,.35-.04,.67,.07,.9,.3,.25,.26,.37,.65,.32,1.06-.04,.34-.11,.69-.17,1.02-.24,1.28-.48,2.6,.17,3.75,.12,.18,.25,.35,.37,.51l2.61,3.48-.08,.06Z"/>
        <path class="cls-11" d="M13.74,15.55l-2.61-3.48c-.12-.17-.25-.34-.38-.51h0c-.73-1.12-.52-2.4-.32-3.64,.09-.53,.18-1.08,.19-1.61,0-.26-.09-.49-.26-.66-.17-.16-.41-.24-.67-.23-.27,.02-.54,.05-.83,.09-.61,.08-1.24,.16-1.82,.07-.65-.1-1.13-.4-1.46-.93l-1.9-2.53,.08-.06,1.9,2.53h0c.71,1.13,1.96,.97,3.18,.82,.28-.03,.56-.07,.83-.09,.29-.02,.56,.07,.75,.25,.19,.18,.3,.44,.29,.73-.01,.53-.1,1.09-.19,1.62-.2,1.22-.4,2.48,.3,3.56,.13,.17,.25,.34,.38,.51l2.61,3.48-.08,.06Z"/>
        <path class="cls-8" d="M14.23,15.11l-2.59-3.46c-.12-.16-.25-.33-.38-.51-.81-1.17-.6-2.54-.39-3.88,.06-.4,.13-.82,.16-1.21,.03-.34-.06-.66-.24-.85-.14-.15-.32-.22-.55-.22-.33,0-.68,.04-1.02,.07-1.14,.12-2.32,.24-3.09-.76-.22-.3-.44-.58-.62-.83h0s-1.26-1.69-1.26-1.69l.08-.06,1.26,1.69c.19,.25,.4,.53,.62,.83,.74,.95,1.89,.84,3,.72,.34-.03,.7-.07,1.03-.07,.25,0,.46,.08,.62,.25,.2,.22,.3,.57,.27,.93-.03,.4-.1,.82-.16,1.22-.2,1.31-.41,2.67,.38,3.8,.12,.17,.25,.34,.37,.51l2.59,3.46-.08,.06Z"/>
        <path class="cls-18" d="M14.69,14.63l-2.56-3.41c-.12-.16-.25-.33-.37-.5-.4-.53-.6-1.17-.63-1.96-.02-.69,.09-1.4,.2-2.09,.05-.3,.1-.59,.13-.87,.05-.44-.05-.84-.28-1.08-.17-.18-.4-.26-.68-.25-.22,.02-.45,.04-.68,.07-1.12,.12-2.27,.25-3.13-.58h0c-.23-.29-.44-.57-.62-.82l-1.24-1.66,.08-.06,1.24,1.66c.18,.25,.39,.53,.62,.81,.82,.8,1.95,.68,3.04,.55,.23-.03,.46-.05,.68-.07,.31-.02,.58,.08,.77,.28,.25,.26,.36,.7,.3,1.17-.04,.29-.08,.57-.13,.88-.22,1.38-.46,2.81,.4,3.97,.12,.17,.25,.34,.37,.5l2.56,3.41-.08,.06Z"/>
        <path class="cls-3" d="M15.11,14.11l-2.64-3.52c-.14-.18-.28-.37-.4-.58-.31-.54-.47-1.17-.47-1.93,0-.67,.11-1.35,.22-2,.03-.18,.06-.36,.09-.54,.04-.28,.1-.98-.24-1.35-.15-.17-.38-.25-.66-.24-.28,.01-.56,.04-.86,.07-.59,.06-1.19,.13-1.75,.05-.64-.09-1.11-.37-1.45-.84l-1.51-2.01,.08-.06,1.51,2.02c.73,1.01,1.93,.88,3.1,.75,.3-.03,.59-.06,.87-.07,.32-.01,.56,.08,.74,.27,.35,.39,.31,1.07,.26,1.44-.03,.18-.06,.36-.09,.54-.22,1.32-.45,2.69,.23,3.86,.12,.21,.26,.39,.4,.57l2.64,3.52-.08,.06Z"/>
        <path class="cls-23" d="M15.51,13.54l-2.57-3.43c-.13-.18-.27-.36-.4-.55h0c-.66-1.16-.46-2.45-.27-3.69,.08-.54,.17-1.1,.18-1.63,0-.23-.07-.43-.22-.59-.18-.17-.44-.27-.72-.25-.29,.02-.6,.06-.9,.1-1.08,.14-2.2,.29-3.01-.55h0c-.23-.28-.44-.55-.62-.79l-.87-1.16,.08-.06,.87,1.16c.18,.24,.38,.51,.61,.78,.78,.8,1.87,.66,2.92,.52,.3-.04,.61-.08,.9-.1,.31-.02,.6,.09,.8,.28,.18,.17,.26,.4,.25,.66-.01,.54-.1,1.1-.18,1.65-.19,1.23-.38,2.49,.26,3.62,.13,.19,.27,.37,.4,.54l2.57,3.43-.08,.06Z"/>
        <path class="cls-1" d="M15.86,12.92l-2.48-3.3c-.13-.17-.26-.34-.39-.53-.34-.49-.49-1.1-.48-1.91,0-.58,.1-1.13,.19-1.67,.1-.61,.21-1.24,.19-1.9-.02-.4-.35-.68-.79-.67-.3,.01-.61,.04-.94,.08-.67,.07-1.36,.14-1.97,.03-.7-.13-1.21-.49-1.55-1.09l-.83-1.11,.08-.06,.84,1.12h0c.73,1.3,2.1,1.16,3.42,1.02,.32-.03,.64-.07,.95-.08,.49-.01,.87,.31,.89,.77,.02,.67-.08,1.31-.19,1.92-.09,.53-.18,1.08-.19,1.65,0,.79,.14,1.38,.46,1.85,.13,.18,.26,.36,.38,.52h0s2.47,3.3,2.47,3.3l-.08,.06Z"/>
        <path class="cls-6" d="M16.17,12.24l-2.36-3.15c-.12-.16-.25-.33-.37-.5h0c-.49-.7-.51-1.6-.48-2.21,.01-.46,.1-.91,.19-1.35,.13-.68,.27-1.39,.11-2.08-.09-.36-.46-.52-1.15-.46-.19,.01-.4,.04-.6,.06-.58,.06-1.17,.12-1.72,.05-.63-.09-1.1-.35-1.46-.8-.17-.22-.31-.41-.43-.57l-.37-.49,.08-.06,.37,.49c.12,.16,.26,.35,.43,.57,.75,.96,1.93,.83,3.08,.71,.2-.02,.4-.04,.6-.06,.31-.02,.56,0,.75,.05,.28,.08,.45,.25,.51,.49,.16,.72,.02,1.44-.11,2.13-.08,.44-.17,.89-.18,1.34-.04,.96,.1,1.63,.46,2.15,.12,.17,.25,.34,.37,.5h0s2.36,3.15,2.36,3.15l-.08,.06Z"/>
        <path class="cls-10" d="M16.43,11.49l-2.36-3.15c-.44-.53-.66-1.17-.69-1.96-.02-.7,.1-1.42,.23-2.12,.07-.37,.13-.73,.17-1.07,.04-.36-.05-.7-.26-.92-.17-.18-.4-.28-.67-.27-.28,.01-.57,.04-.85,.07-1.19,.11-2.41,.23-3.22-.78h0c-.28-.38-.45-.6-.45-.6l.08-.06s.17,.22,.45,.6c.77,.96,1.97,.85,3.13,.74,.28-.03,.58-.06,.86-.07,.3,0,.56,.1,.75,.3,.22,.24,.33,.62,.28,1-.04,.35-.1,.7-.17,1.08-.25,1.41-.5,2.86,.44,4h0s2.36,3.15,2.36,3.15l-.08,.06Z"/>
        <path class="cls-5" d="M16.64,10.67l-2.17-2.9c-.87-1.14-.64-2.52-.42-3.84,.08-.49,.16-.99,.19-1.47,.01-.26-.07-.5-.22-.67-.14-.16-.34-.24-.56-.25-.36-.01-.73,.01-1.12,.04-1.17,.08-2.38,.17-3.15-.86l.08-.06c.73,.98,1.91,.9,3.06,.82,.38-.03,.77-.05,1.13-.04,.25,0,.47,.11,.63,.28,.18,.19,.27,.46,.25,.75-.02,.48-.11,.99-.19,1.48-.22,1.31-.44,2.65,.4,3.76l2.17,2.9-.08,.06Z"/>
        <path class="cls-19" d="M16.76,9.74l-1.73-2.3c-.13-.17-.25-.34-.37-.52h0c-.61-1.2-.36-2.52-.11-3.8,.06-.3,.12-.61,.16-.9,.05-.36-.04-.67-.27-.9-.24-.24-.61-.35-1.01-.3h-.01c-1.09,.15-2.22,.3-3.23-.24l.05-.09c.97,.52,2.09,.37,3.16,.23h.01c.43-.06,.83,.06,1.1,.33,.25,.25,.35,.6,.3,.99-.05,.3-.1,.61-.16,.91-.24,1.26-.49,2.56,.1,3.73,.12,.18,.24,.34,.37,.51l1.73,2.3-.08,.06Z"/>
        <path class="cls-12" d="M16.78,8.67l-1.22-1.63c-.12-.16-.24-.32-.36-.51-.55-.79-.49-1.76-.38-2.77,.03-.27,.09-.55,.14-.81,.12-.61,.25-1.25,.12-1.88-.06-.33-.38-.49-.94-.49-.29,0-.58,.03-.86,.05-.53,.04-1.08,.08-1.63,0v-.1c.55,.07,1.07,.03,1.62,0,.28-.02,.58-.04,.87-.05h.01c.6,0,.95,.2,1.03,.57,.13,.65,0,1.29-.13,1.92-.05,.26-.11,.54-.14,.8-.11,.99-.16,1.95,.36,2.7h0c.12,.18,.24,.35,.36,.51l1.22,1.63-.08,.06Z"/>
        <path class="cls-15" d="M16.61,7.36l-.67-.89c-.1-.13-.21-.28-.31-.45h0c-.64-1.09-.43-2.3-.22-3.48,.08-.43,.15-.88,.19-1.3,.02-.37,.02-.77-.28-.94-.44-.24-.96-.22-1.41-.16V.04c.45-.06,.99-.08,1.46,.17,.38,.21,.35,.75,.33,1.04-.03,.43-.11,.88-.19,1.31-.2,1.16-.42,2.36,.21,3.41,.1,.16,.21,.31,.31,.44l.67,.89-.08,.06Z"/>
        <path class="cls-4" d="M15.92,5.26c-.43-1.09-.23-2.23-.03-3.34,.06-.34,.12-.69,.16-1.03h.1c-.04,.35-.1,.7-.16,1.04-.19,1.09-.39,2.22,.03,3.28l-.1,.04Z"/>
      </g>
    </g>
  </g>
</svg>