<?xml version="1.0" encoding="UTF-8"?>
<svg id="Layer_2" data-name="Layer 2" xmlns="http://www.w3.org/2000/svg" viewBox="0 0 13.06 6.92">
  <defs>
    <style>
      .cls-1 {
        fill: #bce555;
      }
    </style>
  </defs>
  <g id="g" data-name="g">
    <g id="elements">
      <g>
        <path class="cls-1" d="M2.71,4.04l.17-.02c.06-.11,.12-.23,.18-.33l-.35,.35Z"/>
        <polygon class="cls-1" points="3.05 4 3.53 3.95 3.45 3.28 3.16 3.58 3.05 4"/>
        <path class="cls-1" d="M8.48,1.87l.21,.1c.15,0,.37-.02,.39,0,.03,0,.41,.05,.6,.07l.62-.7s.08-.06,.13-.07l.37-.04s.04,0,.06,0l.04-.28-2.68,.3,.2,.43,.07,.2Z"/>
        <polygon class="cls-1" points="7.59 4.25 7.46 3.05 6.13 4.42 7.59 4.25"/>
        <path class="cls-1" d="M3.51,2.11s0,0,.01,0l.29-.03c.11-.01,.21,.07,.22,.18l.02,.16,.87-.28c.11-.13,.26-.21,.44-.22l.69-.08s-.09-.05-.09-.07c0-.02-.07-.11-.13-.18l-2.34,.26-.08,.13,.1,.14Z"/>
        <polygon class="cls-1" points="6.08 2.56 5.51 2.63 5.64 3.83 6.49 2.95 6.08 2.56"/>
        <path class="cls-1" d="M9.64,2.09h-.01s-.38,.44-.38,.44l-.02,.02-.75,.84s-.06,.1-.05,.16l.03,.3-.08,.11h-.13s-.19-1.67-.19-1.67c-.01-.1-.04-.2-.09-.28-.04-.07-.1-.13-.16-.19-.08-.07-.17-.11-.27-.13-.08-.02-.16-.02-.24-.02l-1.17,.13-.09-.13,.09-.15,2.03-.23,.2,.43,.07,.2,.21,.1c.15,0,.37-.02,.39,0,.03,0,.41,.05,.6,.07Z"/>
        <polygon class="cls-1" points="9.66 3.29 10.46 3.21 9.98 2.97 9.66 3.29"/>
        <polygon class="cls-1" points="10.49 3.14 10.42 2.51 10.11 2.83 10.49 3.14"/>
        <path class="cls-1" d="M11.13,1c-.03,.09-.08,.22-.13,.35,.04,.03,.07,.08,.08,.14l.18,1.62,.25-.03c.11-.01,.21,.07,.22,.18l.04,.33s0,.07-.02,.1l.3,.11-.32-2.86-.6,.07Z"/>
        <polygon class="cls-1" points="6.96 2.43 6.1 2.52 6.53 2.86 6.96 2.43"/>
        <path class="cls-1" d="M8.03,5.22l-3.41,.38-.22-.37s.01-.06,0-.08l-.06-.55,.25-.03c.11-.01,.19-.11,.18-.22l-.04-.33c0-.05-.03-.09-.06-.13-.01-.01-.03-.02-.04-.03-.03-.02-.07-.03-.12-.02l-.25,.03-.15-1.35,.13-.09,.18,.02,.07-.1,.31,.08c-.02,.08-.02,.16-.01,.25l.21,1.92c.02,.19,.11,.34,.25,.46,.15,.12,.32,.17,.51,.15l1.87-.21c.08,0,.16-.03,.23-.07,.05,.09,.11,.2,.16,.29Z"/>
        <path class="cls-1" d="M3.18,4.75l-1.46,.16c-.11,.01-.21-.07-.22-.18l-.04-.37c0-.06,.01-.11,.05-.16l.35-.4h-.3s-.42,.04-.42,.04l.21,1.89c.3-.14,.69-.31,.85-.37,.2-.07,.71-.43,.97-.62Z"/>
        <path class="cls-1" d="M4.25,5.41l-.33,.04c-.11,.01-.21-.07-.22-.18l-.06-.54-.33,.04c-.2,.17-.57,.48-.6,.5-.04,.03-.57,.4-.57,.4l.05,.25,2.39-.27c-.06-.1-.13-.23-.18-.33-.03,.05-.08,.08-.15,.09Z"/>
        <path class="cls-1" d="M11.58,3.83l-.25,.03,.06,.55c.01,.11-.07,.21-.18,.22l-.33,.04c-.11,.01-.21-.07-.22-.18l-.06-.54-1.81,.2s-.09,0-.12-.03c-.1,.04-.2,.09-.3,.12h0c.02,.2-.03,.37-.15,.52-.06,.07-.12,.13-.19,.17l.18,.31,3.94-.44-.1-.87-.32-.2c-.03,.06-.09,.1-.15,.1Z"/>
        <path class="cls-1" d="M3.32,2.18s.04-.03,.06-.04c-.02-.01-.13-.06-.13-.09,0-.02-.06-.1-.12-.17l-1.09,.12,.62,.93,.67-.75Z"/>
        <path class="cls-1" d="M1.48,3.61l.35,.13,.63-.71-.69-1.04-.87,.1,.16,1.44s.08,.05,.09,.05c.02,.01,.33,.02,.33,.02Z"/>
        <path class="cls-1" d="M3.4,2.11s.04-.02,.06-.02l-.1-.14,.08-.13-.29,.03c.06,.07,.12,.15,.12,.17,0,.03,.11,.08,.13,.09Z"/>
        <path class="cls-1" d="M6.05,1.75h.09s-.09-.14-.09-.14l.09-.15-.31,.03c.06,.07,.13,.16,.13,.18,0,.02,.05,.05,.09,.07Z"/>
        <path class="cls-1" d="M2.61,5.29s.4-.33,.6-.5h-.03c-.26,.19-.78,.55-.97,.62-.16,.06-.56,.24-.85,.37l.03,.24,.7-.08-.05-.25s.53-.37,.57-.4Z"/>
        <path class="cls-1" d="M1.74,3.79l.02-.02-.35-.13s-.31-.01-.33-.02c0,0-.04-.02-.09-.05l.03,.27,.42-.05h.3Z"/>
        <path class="cls-1" d="M4.24,2.43l.18,.02,.07-.1,.31,.08c.02-.1,.07-.18,.13-.27,0-.01,.02-.02,.03-.03l-.87,.28v.12s.14-.09,.14-.09Z"/>
        <path class="cls-1" d="M4.37,5.28c.06,.1,.13,.22,.18,.33h.06s-.22-.38-.22-.38c0,.02-.01,.03-.02,.05Z"/>
        <path class="cls-1" d="M7.89,4.84c.05,.09,.11,.2,.16,.29h.06s-.18-.32-.18-.32c-.01,0-.03,.01-.04,.02Z"/>
        <path class="cls-1" d="M10.81,1.78s.02-.05,.04-.12c0,0,0-.02,0-.03,0-.03,.02-.06,.03-.09,0-.01,0-.02,.01-.03,.02-.06,.04-.12,.06-.18-.03-.02-.06-.04-.09-.04l-.06,.48Z"/>
        <path class="cls-1" d="M10.96,1.34c.05-.13,.09-.26,.13-.35l-.18,.02-.04,.28s.07,.02,.09,.04Z"/>
        <path class="cls-1" d="M11.7,3.69l.32,.2v-.1s-.31-.11-.31-.11c0,0,0,.01,0,.02Z"/>
        <polygon class="cls-1" points="9.96 2.94 10.44 3.17 10.47 3.17 10.46 3.13 10.08 2.81 9.96 2.94"/>
        <path class="cls-1" d="M3.05,3.69c-.06,.11-.12,.23-.18,.33l.18-.02,.11-.42-.11,.11Z"/>
        <polygon class="cls-1" points="6.59 2.93 6.16 2.59 6.13 2.59 6.54 2.98 6.59 2.93"/>
        <path class="cls-1" d="M8.52,3.93v-.07s-.09,.11-.09,.11h-.13s.02,.24,.02,.24c.09-.04,.2-.08,.3-.12-.05-.03-.09-.09-.1-.15Z"/>
        <polygon class="cls-1" points="2.58 2.86 1.96 1.93 1.78 1.95 2.47 2.98 2.58 2.86"/>
        <polygon class="cls-1" points=".62 6.92 .02 1.54 .02 1.54 0 1.39 .71 1.32 .73 1.46 .17 1.53 .75 6.75 1.31 6.69 1.33 6.84 .62 6.92"/>
        <polygon class="cls-1" points="12.44 0 13.04 5.38 13.04 5.38 13.06 5.52 12.35 5.6 12.33 5.45 12.89 5.39 12.31 .16 11.74 .23 11.73 .08 12.44 0"/>
        <polygon class="cls-1" points="11.96 5.06 7.26 5.59 7.44 5.39 12.14 4.86 11.96 5.06"/>
        <path class="cls-1" d="M2.71,4.04l.17-.02c.06-.11,.12-.23,.18-.33l-.35,.35Z"/>
        <polygon class="cls-1" points="3.05 4 3.53 3.95 3.45 3.28 3.16 3.58 3.05 4"/>
        <path class="cls-1" d="M8.48,1.87l.21,.1c.15,0,.37-.02,.39,0,.03,0,.41,.05,.6,.07l.62-.7s.08-.06,.13-.07l.37-.04s.04,0,.06,0l.04-.28-2.68,.3,.2,.43,.07,.2Z"/>
        <polygon class="cls-1" points="7.59 4.25 7.46 3.05 6.13 4.42 7.59 4.25"/>
        <path class="cls-1" d="M3.51,2.11s0,0,.01,0l.29-.03c.11-.01,.21,.07,.22,.18l.02,.16,.87-.28c.11-.13,.26-.21,.44-.22l.69-.08s-.09-.05-.09-.07c0-.02-.07-.11-.13-.18l-2.34,.26-.08,.13,.1,.14Z"/>
        <polygon class="cls-1" points="6.08 2.56 5.51 2.63 5.64 3.83 6.49 2.95 6.08 2.56"/>
        <path class="cls-1" d="M9.64,2.09h-.01s-.38,.44-.38,.44l-.02,.02-.75,.84s-.06,.1-.05,.16l.03,.3-.08,.11h-.13s-.19-1.67-.19-1.67c-.01-.1-.04-.2-.09-.28-.04-.07-.1-.13-.16-.19-.08-.07-.17-.11-.27-.13-.08-.02-.16-.02-.24-.02l-1.17,.13-.09-.13,.09-.15,2.03-.23,.2,.43,.07,.2,.21,.1c.15,0,.37-.02,.39,0,.03,0,.41,.05,.6,.07Z"/>
        <polygon class="cls-1" points="9.66 3.29 10.46 3.21 9.98 2.97 9.66 3.29"/>
        <polygon class="cls-1" points="10.49 3.14 10.42 2.51 10.11 2.83 10.49 3.14"/>
        <path class="cls-1" d="M11.13,1c-.03,.09-.08,.22-.13,.35,.04,.03,.07,.08,.08,.14l.18,1.62,.25-.03c.11-.01,.21,.07,.22,.18l.04,.33s0,.07-.02,.1l.3,.11-.32-2.86-.6,.07Z"/>
        <polygon class="cls-1" points="6.96 2.43 6.1 2.52 6.53 2.86 6.96 2.43"/>
        <path class="cls-1" d="M8.03,5.22l-3.41,.38-.22-.37s.01-.06,0-.08l-.06-.55,.25-.03c.11-.01,.19-.11,.18-.22l-.04-.33c0-.05-.03-.09-.06-.13-.01-.01-.03-.02-.04-.03-.03-.02-.07-.03-.12-.02l-.25,.03-.15-1.35,.13-.09,.18,.02,.07-.1,.31,.08c-.02,.08-.02,.16-.01,.25l.21,1.92c.02,.19,.11,.34,.25,.46,.15,.12,.32,.17,.51,.15l1.87-.21c.08,0,.16-.03,.23-.07,.05,.09,.11,.2,.16,.29Z"/>
        <path class="cls-1" d="M3.18,4.75l-1.46,.16c-.11,.01-.21-.07-.22-.18l-.04-.37c0-.06,.01-.11,.05-.16l.35-.4h-.3s-.42,.04-.42,.04l.21,1.89c.3-.14,.69-.31,.85-.37,.2-.07,.71-.43,.97-.62Z"/>
        <path class="cls-1" d="M4.25,5.41l-.33,.04c-.11,.01-.21-.07-.22-.18l-.06-.54-.33,.04c-.2,.17-.57,.48-.6,.5-.04,.03-.57,.4-.57,.4l.05,.25,2.39-.27c-.06-.1-.13-.23-.18-.33-.03,.05-.08,.08-.15,.09Z"/>
        <path class="cls-1" d="M11.58,3.83l-.25,.03,.06,.55c.01,.11-.07,.21-.18,.22l-.33,.04c-.11,.01-.21-.07-.22-.18l-.06-.54-1.81,.2s-.09,0-.12-.03c-.1,.04-.2,.09-.3,.12h0c.02,.2-.03,.37-.15,.52-.06,.07-.12,.13-.19,.17l.18,.31,3.94-.44-.1-.87-.32-.2c-.03,.06-.09,.1-.15,.1Z"/>
        <path class="cls-1" d="M3.32,2.18s.04-.03,.06-.04c-.02-.01-.13-.06-.13-.09,0-.02-.06-.1-.12-.17l-1.09,.12,.62,.93,.67-.75Z"/>
        <path class="cls-1" d="M1.48,3.61l.35,.13,.63-.71-.69-1.04-.87,.1,.16,1.44s.08,.05,.09,.05c.02,.01,.33,.02,.33,.02Z"/>
        <path class="cls-1" d="M3.4,2.11s.04-.02,.06-.02l-.1-.14,.08-.13-.29,.03c.06,.07,.12,.15,.12,.17,0,.03,.11,.08,.13,.09Z"/>
        <path class="cls-1" d="M6.05,1.75h.09s-.09-.14-.09-.14l.09-.15-.31,.03c.06,.07,.13,.16,.13,.18,0,.02,.05,.05,.09,.07Z"/>
        <path class="cls-1" d="M2.61,5.29s.4-.33,.6-.5h-.03c-.26,.19-.78,.55-.97,.62-.16,.06-.56,.24-.85,.37l.03,.24,.7-.08-.05-.25s.53-.37,.57-.4Z"/>
        <path class="cls-1" d="M1.74,3.79l.02-.02-.35-.13s-.31-.01-.33-.02c0,0-.04-.02-.09-.05l.03,.27,.42-.05h.3Z"/>
        <path class="cls-1" d="M4.24,2.43l.18,.02,.07-.1,.31,.08c.02-.1,.07-.18,.13-.27,0-.01,.02-.02,.03-.03l-.87,.28v.12s.14-.09,.14-.09Z"/>
        <path class="cls-1" d="M4.37,5.28c.06,.1,.13,.22,.18,.33h.06s-.22-.38-.22-.38c0,.02-.01,.03-.02,.05Z"/>
        <path class="cls-1" d="M7.89,4.84c.05,.09,.11,.2,.16,.29h.06s-.18-.32-.18-.32c-.01,0-.03,.01-.04,.02Z"/>
        <path class="cls-1" d="M10.81,1.78s.02-.05,.04-.12c0,0,0-.02,0-.03,0-.03,.02-.06,.03-.09,0-.01,0-.02,.01-.03,.02-.06,.04-.12,.06-.18-.03-.02-.06-.04-.09-.04l-.06,.48Z"/>
        <path class="cls-1" d="M10.96,1.34c.05-.13,.09-.26,.13-.35l-.18,.02-.04,.28s.07,.02,.09,.04Z"/>
        <path class="cls-1" d="M11.7,3.69l.32,.2v-.1s-.31-.11-.31-.11c0,0,0,.01,0,.02Z"/>
        <polygon class="cls-1" points="9.96 2.94 10.44 3.17 10.47 3.17 10.46 3.13 10.08 2.81 9.96 2.94"/>
        <path class="cls-1" d="M3.05,3.69c-.06,.11-.12,.23-.18,.33l.18-.02,.11-.42-.11,.11Z"/>
        <polygon class="cls-1" points="6.59 2.93 6.16 2.59 6.13 2.59 6.54 2.98 6.59 2.93"/>
        <path class="cls-1" d="M8.52,3.93v-.07s-.09,.11-.09,.11h-.13s.02,.24,.02,.24c.09-.04,.2-.08,.3-.12-.05-.03-.09-.09-.1-.15Z"/>
        <polygon class="cls-1" points="2.58 2.86 1.96 1.93 1.78 1.95 2.47 2.98 2.58 2.86"/>
        <polygon class="cls-1" points=".62 6.92 .02 1.54 .02 1.54 0 1.39 .71 1.32 .73 1.46 .17 1.53 .75 6.75 1.31 6.69 1.33 6.84 .62 6.92"/>
        <polygon class="cls-1" points="12.44 0 13.04 5.38 13.04 5.38 13.06 5.52 12.35 5.6 12.33 5.45 12.89 5.39 12.31 .16 11.74 .23 11.73 .08 12.44 0"/>
        <polygon class="cls-1" points="11.96 5.06 7.26 5.59 7.44 5.39 12.14 4.86 11.96 5.06"/>
      </g>
    </g>
  </g>
</svg>