<?xml version="1.0" encoding="utf-8"?>
<!-- Generator: Adobe Illustrator 27.0.1, SVG Export Plug-In . SVG Version: 6.00 Build 0)  -->
<svg version="1.1" id="Layer_2_00000006673254232348026910000007081600913747868582_"
	 xmlns="http://www.w3.org/2000/svg" xmlns:xlink="http://www.w3.org/1999/xlink" x="0px" y="0px" viewBox="0 0 7.5 21.6"
	 style="enable-background:new 0 0 7.5 21.6;" xml:space="preserve">
<style type="text/css">
	.st0{fill:#FFFFFF;}
</style>
<g id="g">
	<g id="elements">
		<g>
			<polygon class="st0" points="0,20.3 1.3,21.6 0.8,21.6 0,20.8 			"/>
			<polygon class="st0" points="0,18.4 3.2,21.6 2.7,21.6 0,18.9 			"/>
			<polygon class="st0" points="0,16.5 5.1,21.6 4.7,21.6 0,17 			"/>
			<polygon class="st0" points="0,14.6 7.1,21.6 6.6,21.6 0,15.1 			"/>
			<polygon class="st0" points="0,12.7 7.5,20.1 7.5,20.6 0,13.2 			"/>
			<polygon class="st0" points="0,10.8 7.5,18.2 7.5,18.7 0,11.3 			"/>
			<polygon class="st0" points="0,8.9 7.5,16.3 7.5,16.8 0,9.3 			"/>
			<polygon class="st0" points="0,6.9 7.5,14.4 7.5,14.9 0,7.4 			"/>
			<polygon class="st0" points="0,5 7.5,12.5 7.5,13 0,5.5 			"/>
			<polygon class="st0" points="0,3.1 7.5,10.6 7.5,11.1 0,3.6 			"/>
			<polygon class="st0" points="0,1.2 7.5,8.7 7.5,9.2 0,1.7 			"/>
			<polygon class="st0" points="0.2,0 0.7,0 7.5,6.8 7.5,7.2 			"/>
			<polygon class="st0" points="2.1,0 2.6,0 7.5,4.9 7.5,5.3 			"/>
			<polygon class="st0" points="4,0 4.5,0 7.5,2.9 7.5,3.4 			"/>
			<polygon class="st0" points="5.9,0 6.4,0 7.5,1 7.5,1.5 			"/>
		</g>
	</g>
</g>
</svg>
