<?xml version="1.0" encoding="UTF-8"?>
<svg id="Layer_2" data-name="Layer 2" xmlns="http://www.w3.org/2000/svg" xmlns:xlink="http://www.w3.org/1999/xlink" viewBox="0 0 51.68 124.22">
  <defs>
    <style>
      .cls-1 {
        fill: url(#_횁책챌청챙첼챠챠청챕_찾챨횪채챔책챠챵_3-29);
      }

      .cls-2 {
        fill: url(#_횁책챌청챙첼챠챠청챕_찾챨횪채챔책챠챵_3-40);
      }

      .cls-3 {
        fill: url(#_횁책챌청챙첼챠챠청챕_찾챨횪채챔책챠챵_3-28);
      }

      .cls-4 {
        fill: url(#_횁책챌청챙첼챠챠청챕_찾챨횪채챔책챠챵_3-38);
      }

      .cls-5 {
        fill: url(#_횁책챌청챙첼챠챠청챕_찾챨횪채챔책챠챵_3-26);
      }

      .cls-6 {
        fill: url(#_횁책챌청챙첼챠챠청챕_찾챨횪채챔책챠챵_3-35);
      }

      .cls-7 {
        fill: url(#_횁책챌청챙첼챠챠청챕_찾챨횪채챔책챠챵_3-19);
      }

      .cls-8 {
        fill: url(#_횁책챌청챙첼챠챠청챕_찾챨횪채챔책챠챵_3-44);
      }

      .cls-9 {
        fill: url(#_횁책챌청챙첼챠챠청챕_찾챨횪채챔책챠챵_3-7);
      }

      .cls-10 {
        fill: url(#_횁책챌청챙첼챠챠청챕_찾챨횪채챔책챠챵_3-41);
      }

      .cls-11 {
        fill: url(#_횁책챌청챙첼챠챠청챕_찾챨횪채챔책챠챵_3-45);
      }

      .cls-12 {
        fill: url(#_횁책챌청챙첼챠챠청챕_찾챨횪채챔책챠챵_3-11);
      }

      .cls-13 {
        fill: url(#_횁책챌청챙첼챠챠청챕_찾챨횪채챔책챠챵_3-10);
      }

      .cls-14 {
        fill: url(#_횁책챌청챙첼챠챠청챕_찾챨횪채챔책챠챵_3-14);
      }

      .cls-15 {
        fill: url(#_횁책챌청챙첼챠챠청챕_찾챨횪채챔책챠챵_3-9);
      }

      .cls-16 {
        fill: url(#_횁책챌청챙첼챠챠청챕_찾챨횪채챔책챠챵_3-33);
      }

      .cls-17 {
        fill: url(#_횁책챌청챙첼챠챠청챕_찾챨횪채챔책챠챵_3-32);
      }

      .cls-18 {
        fill: url(#_횁책챌청챙첼챠챠청챕_찾챨횪채챔책챠챵_3-23);
      }

      .cls-19 {
        fill: url(#_횁책챌청챙첼챠챠청챕_찾챨횪채챔책챠챵_3-36);
      }

      .cls-20 {
        fill: url(#_횁책챌청챙첼챠챠청챕_찾챨횪채챔책챠챵_3-37);
      }

      .cls-21 {
        fill: url(#_횁책챌청챙첼챠챠청챕_찾챨횪채챔책챠챵_3-20);
      }

      .cls-22 {
        fill: url(#_횁책챌청챙첼챠챠청챕_찾챨횪채챔책챠챵_3-34);
      }

      .cls-23 {
        fill: url(#_횁책챌청챙첼챠챠청챕_찾챨횪채챔책챠챵_3-42);
      }

      .cls-24 {
        fill: url(#_횁책챌청챙첼챠챠청챕_찾챨횪채챔책챠챵_3-8);
      }

      .cls-25 {
        fill: url(#_횁책챌청챙첼챠챠청챕_찾챨횪채챔책챠챵_3-24);
      }

      .cls-26 {
        fill: url(#_횁책챌청챙첼챠챠청챕_찾챨횪채챔책챠챵_3-4);
      }

      .cls-27 {
        opacity: .3;
      }

      .cls-28 {
        fill: url(#_횁책챌청챙첼챠챠청챕_찾챨횪채챔책챠챵_3-27);
      }

      .cls-29 {
        fill: url(#_횁책챌청챙첼챠챠청챕_찾챨횪채챔책챠챵_3-18);
      }

      .cls-30 {
        fill: url(#_횁책챌청챙첼챠챠청챕_찾챨횪채챔책챠챵_3-21);
      }

      .cls-31 {
        fill: url(#_횁책챌청챙첼챠챠청챕_찾챨횪채챔책챠챵_3-17);
      }

      .cls-32 {
        fill: url(#_횁책챌청챙첼챠챠청챕_찾챨횪채챔책챠챵_3-51);
      }

      .cls-33 {
        fill: url(#_횁책챌청챙첼챠챠청챕_찾챨횪채챔책챠챵_3-46);
      }

      .cls-34 {
        fill: url(#_횁책챌청챙첼챠챠청챕_찾챨횪채챔책챠챵_3-3);
      }

      .cls-35 {
        fill: url(#_횁책챌청챙첼챠챠청챕_찾챨횪채챔책챠챵_3-50);
      }

      .cls-36 {
        fill: url(#_횁책챌청챙첼챠챠청챕_찾챨횪채챔책챠챵_3-39);
      }

      .cls-37 {
        clip-path: url(#clippath);
      }

      .cls-38 {
        fill: url(#_횁책챌청챙첼챠챠청챕_찾챨횪채챔책챠챵_3-5);
      }

      .cls-39 {
        fill: url(#_횁책챌청챙첼챠챠청챕_찾챨횪채챔책챠챵_3-12);
      }

      .cls-40 {
        fill: none;
      }

      .cls-41 {
        fill: url(#_횁책챌청챙첼챠챠청챕_찾챨횪채챔책챠챵_3-22);
      }

      .cls-42 {
        fill: url(#_횁책챌청챙첼챠챠청챕_찾챨횪채챔책챠챵_3-48);
      }

      .cls-43 {
        fill: url(#_횁책챌청챙첼챠챠청챕_찾챨횪채챔책챠챵_3-2);
      }

      .cls-44 {
        fill: url(#_횁책챌청챙첼챠챠청챕_찾챨횪채챔책챠챵_3-13);
      }

      .cls-45 {
        fill: url(#_횁책챌청챙첼챠챠청챕_찾챨횪채챔책챠챵_3-15);
      }

      .cls-46 {
        fill: url(#_횁책챌청챙첼챠챠청챕_찾챨횪채챔책챠챵_3-6);
      }

      .cls-47 {
        fill: url(#_횁책챌청챙첼챠챠청챕_찾챨횪채챔책챠챵_3-47);
      }

      .cls-48 {
        fill: url(#_횁책챌청챙첼챠챠청챕_찾챨횪채챔책챠챵_3);
      }

      .cls-49 {
        fill: url(#_횁책챌청챙첼챠챠청챕_찾챨횪채챔책챠챵_3-30);
      }

      .cls-50 {
        fill: url(#_횁책챌청챙첼챠챠청챕_찾챨횪채챔책챠챵_3-43);
      }

      .cls-51 {
        fill: url(#_횁책챌청챙첼챠챠청챕_찾챨횪채챔책챠챵_3-31);
      }

      .cls-52 {
        fill: url(#_횁책챌청챙첼챠챠청챕_찾챨횪채챔책챠챵_3-49);
      }

      .cls-53 {
        fill: url(#_횁책챌청챙첼챠챠청챕_찾챨횪채챔책챠챵_3-16);
      }

      .cls-54 {
        fill: url(#_횁책챌청챙첼챠챠청챕_찾챨횪채챔책챠챵_3-25);
      }
    </style>
    <clipPath id="clippath">
      <rect class="cls-40" y="6.08" width="51.68" height="111.5"/>
    </clipPath>
    <linearGradient id="_횁책챌청챙첼챠챠청챕_찾챨횪채챔책챠챵_3" data-name="횁책챌청챙첼챠챠청챕 찾챨횪채챔책챠챵 3" x1="1.27" y1="62.11" x2="35.93" y2="62.11" gradientUnits="userSpaceOnUse">
      <stop offset="0" stop-color="aqua"/>
      <stop offset="1" stop-color="#0071bc"/>
    </linearGradient>
    <linearGradient id="_횁책챌청챙첼챠챠청챕_찾챨횪채챔책챠챵_3-2" data-name="횁책챌청챙첼챠챠청챕 찾챨횪채챔책챠챵 3" x1="1.09" y1="62.11" x2="35.98" y2="62.11" xlink:href="#_횁책챌청챙첼챠챠청챕_찾챨횪채챔책챠챵_3"/>
    <linearGradient id="_횁책챌청챙첼챠챠청챕_찾챨횪채챔책챠챵_3-3" data-name="횁책챌청챙첼챠챠청챕 찾챨횪채챔책챠챵 3" x1="1.27" y1="62.11" x2="35.93" y2="62.11" xlink:href="#_횁책챌청챙첼챠챠청챕_찾챨횪채챔책챠챵_3"/>
    <linearGradient id="_횁책챌청챙첼챠챠청챕_찾챨횪채챔책챠챵_3-4" data-name="횁책챌청챙첼챠챠청챕 찾챨횪채챔책챠챵 3" x1="1.22" y1="62.11" x2="35.96" y2="62.11" xlink:href="#_횁책챌청챙첼챠챠청챕_찾챨횪채챔책챠챵_3"/>
    <linearGradient id="_횁책챌청챙첼챠챠청챕_찾챨횪채챔책챠챵_3-5" data-name="횁책챌청챙첼챠챠청챕 찾챨횪채챔책챠챵 3" x1="4.78" y1="22.53" x2="35.93" y2="22.53" xlink:href="#_횁책챌청챙첼챠챠청챕_찾챨횪채챔책챠챵_3"/>
    <linearGradient id="_횁책챌청챙첼챠챠청챕_찾챨횪채챔책챠챵_3-6" data-name="횁책챌청챙첼챠챠청챕 찾챨횪채챔책챠챵 3" x1="4.64" y1="22.53" x2="35.99" y2="22.53" xlink:href="#_횁책챌청챙첼챠챠청챕_찾챨횪채챔책챠챵_3"/>
    <linearGradient id="_횁책챌청챙첼챠챠청챕_찾챨횪채챔책챠챵_3-7" data-name="횁책챌청챙첼챠챠청챕 찾챨횪채챔책챠챵 3" x1="1.36" y1="77.96" x2="32.3" y2="77.96" xlink:href="#_횁책챌청챙첼챠챠청챕_찾챨횪채챔책챠챵_3"/>
    <linearGradient id="_횁책챌청챙첼챠챠청챕_찾챨횪채챔책챠챵_3-8" data-name="횁책챌청챙첼챠챠청챕 찾챨횪채챔책챠챵 3" x1="1.24" y1="77.96" x2="32.32" y2="77.96" xlink:href="#_횁책챌청챙첼챠챠청챕_찾챨횪채챔책챠챵_3"/>
    <linearGradient id="_횁책챌청챙첼챠챠청챕_찾챨횪채챔책챠챵_3-9" data-name="횁책챌청챙첼챠챠청챕 찾챨횪채챔책챠챵 3" x1="16.36" y1="67.66" x2="16.37" y2="67.66" xlink:href="#_횁책챌청챙첼챠챠청챕_찾챨횪채챔책챠챵_3"/>
    <linearGradient id="_횁책챌청챙첼챠챠청챕_찾챨횪채챔책챠챵_3-10" data-name="횁책챌청챙첼챠챠청챕 찾챨횪채챔책챠챵 3" x1="25.88" y1="14.32" x2="26.15" y2="14.32" gradientTransform="translate(11.7 40.34) rotate(-90)" xlink:href="#_횁책챌청챙첼챠챠청챕_찾챨횪채챔책챠챵_3"/>
    <linearGradient id="_횁책챌청챙첼챠챠청챕_찾챨횪채챔책챠챵_3-11" data-name="횁책챌청챙첼챠챠청챕 찾챨횪채챔책챠챵 3" x1="24.42" y1="12.51" x2="24.69" y2="12.51" gradientTransform="translate(12.05 37.06) rotate(-90)" xlink:href="#_횁책챌청챙첼챠챠청챕_찾챨횪채챔책챠챵_3"/>
    <linearGradient id="_횁책챌청챙첼챠챠청챕_찾챨횪채챔책챠챵_3-12" data-name="횁책챌청챙첼챠챠청챕 찾챨횪채챔책챠챵 3" x1="30.42" y1="9.38" x2="30.7" y2="9.38" gradientTransform="translate(21.18 39.94) rotate(-90)" xlink:href="#_횁책챌청챙첼챠챠청챕_찾챨횪채챔책챠챵_3"/>
    <linearGradient id="_횁책챌청챙첼챠챠청챕_찾챨횪채챔책챠챵_3-13" data-name="횁책챌청챙첼챠챠청챕 찾챨횪채챔책챠챵 3" x1="35.79" y1="16.84" x2="36.07" y2="16.84" gradientTransform="translate(19.09 52.77) rotate(-90)" xlink:href="#_횁책챌청챙첼챠챠청챕_찾챨횪채챔책챠챵_3"/>
    <linearGradient id="_횁책챌청챙첼챠챠청챕_찾챨횪채챔책챠챵_3-14" data-name="횁책챌청챙첼챠챠청챕 찾챨횪채챔책챠챵 3" x1="29.75" y1="28.82" x2="30.03" y2="28.82" gradientTransform="translate(1.07 58.71) rotate(-90)" xlink:href="#_횁책챌청챙첼챠챠청챕_찾챨횪채챔책챠챵_3"/>
    <linearGradient id="_횁책챌청챙첼챠챠청챕_찾챨횪채챔책챠챵_3-15" data-name="횁책챌청챙첼챠챠청챕 찾챨횪채챔책챠챵 3" x1="25.58" y1="33.18" x2="25.85" y2="33.18" gradientTransform="translate(-7.46 58.89) rotate(-90)" xlink:href="#_횁책챌청챙첼챠챠청챕_찾챨횪채챔책챠챵_3"/>
    <linearGradient id="_횁책챌청챙첼챠챠청챕_찾챨횪채챔책챠챵_3-16" data-name="횁책챌청챙첼챠챠청챕 찾챨횪채챔책챠챵 3" x1="26.88" y1="36.64" x2="27.15" y2="36.64" gradientTransform="translate(-9.63 63.66) rotate(-90)" xlink:href="#_횁책챌청챙첼챠챠청챕_찾챨횪채챔책챠챵_3"/>
    <linearGradient id="_횁책챌청챙첼챠챠청챕_찾챨횪채챔책챠챵_3-17" data-name="횁책챌청챙첼챠챠청챕 찾챨횪채챔책챠챵 3" x1="29.6" y1="44.37" x2="29.87" y2="44.37" gradientTransform="translate(-14.63 74.1) rotate(-90)" xlink:href="#_횁책챌청챙첼챠챠청챕_찾챨횪채챔책챠챵_3"/>
    <linearGradient id="_횁책챌청챙첼챠챠청챕_찾챨횪채챔책챠챵_3-18" data-name="횁책챌청챙첼챠챠청챕 찾챨횪채챔책챠챵 3" x1="30.29" y1="54.48" x2="30.56" y2="54.48" gradientTransform="translate(-24.05 84.9) rotate(-90)" xlink:href="#_횁책챌청챙첼챠챠청챕_찾챨횪채챔책챠챵_3"/>
    <linearGradient id="_횁책챌청챙첼챠챠청챕_찾챨횪채챔책챠챵_3-19" data-name="횁책챌청챙첼챠챠청챕 찾챨횪채챔책챠챵 3" x1="24.71" y1="62.32" x2="24.98" y2="62.32" gradientTransform="translate(-37.48 87.16) rotate(-90)" xlink:href="#_횁책챌청챙첼챠챠청챕_찾챨횪채챔책챠챵_3"/>
    <linearGradient id="_횁책챌청챙첼챠챠청챕_찾챨횪채챔책챠챵_3-20" data-name="횁책챌청챙첼챠챠청챕 찾챨횪채챔책챠챵 3" x1="27.7" y1="64.48" x2="27.97" y2="64.48" gradientTransform="translate(-36.65 92.32) rotate(-90)" xlink:href="#_횁책챌청챙첼챠챠청챕_찾챨횪채챔책챠챵_3"/>
    <linearGradient id="_횁책챌청챙첼챠챠청챕_찾챨횪채챔책챠챵_3-21" data-name="횁책챌청챙첼챠챠청챕 찾챨횪채챔책챠챵 3" x1="27.38" y1="67.56" x2="27.65" y2="67.56" gradientTransform="translate(-40.04 95.08) rotate(-90)" xlink:href="#_횁책챌청챙첼챠챠청챕_찾챨횪채챔책챠챵_3"/>
    <linearGradient id="_횁책챌청챙첼챠챠청챕_찾챨횪채챔책챠챵_3-22" data-name="횁책챌청챙첼챠챠청챕 찾챨횪채챔책챠챵 3" x1="30.04" y1="72.48" x2="30.32" y2="72.48" gradientTransform="translate(-42.3 102.66) rotate(-90)" xlink:href="#_횁책챌청챙첼챠챠청챕_찾챨횪채챔책챠챵_3"/>
    <linearGradient id="_횁책챌청챙첼챠챠청챕_찾챨횪채챔책챠챵_3-23" data-name="횁책챌청챙첼챠챠청챕 찾챨횪채챔책챠챵 3" x1="32.45" y1="78.47" x2="32.73" y2="78.47" gradientTransform="translate(-45.87 111.06) rotate(-90)" xlink:href="#_횁책챌청챙첼챠챠청챕_찾챨횪채챔책챠챵_3"/>
    <linearGradient id="_횁책챌청챙첼챠챠청챕_찾챨횪채챔책챠챵_3-24" data-name="횁책챌청챙첼챠챠청챕 찾챨횪채챔책챠챵 3" x1="31.53" y1="86.54" x2="31.8" y2="86.54" gradientTransform="translate(-54.88 118.21) rotate(-90)" xlink:href="#_횁책챌청챙첼챠챠청챕_찾챨횪채챔책챠챵_3"/>
    <linearGradient id="_횁책챌청챙첼챠챠청챕_찾챨횪채챔책챠챵_3-25" data-name="횁책챌청챙첼챠챠청챕 찾챨횪채챔책챠챵 3" x1="28.39" y1="88.57" x2="28.66" y2="88.57" gradientTransform="translate(-60.04 117.09) rotate(-90)" xlink:href="#_횁책챌청챙첼챠챠청챕_찾챨횪채챔책챠챵_3"/>
    <linearGradient id="_횁책챌청챙첼챠챠청챕_찾챨횪채챔책챠챵_3-26" data-name="횁책챌청챙첼챠챠청챕 찾챨횪채챔책챠챵 3" x1="32.24" y1="98.58" x2="32.52" y2="98.58" gradientTransform="translate(-66.2 130.96) rotate(-90)" xlink:href="#_횁책챌청챙첼챠챠청챕_찾챨횪채챔책챠챵_3"/>
    <linearGradient id="_횁책챌청챙첼챠챠청챕_찾챨횪채챔책챠챵_3-27" data-name="횁책챌청챙첼챠챠청챕 찾챨횪채챔책챠챵 3" x1="29.62" y1="103.34" x2="29.89" y2="103.34" gradientTransform="translate(-73.59 133.1) rotate(-90)" xlink:href="#_횁책챌청챙첼챠챠청챕_찾챨횪채챔책챠챵_3"/>
    <linearGradient id="_횁책챌청챙첼챠챠청챕_찾챨횪채챔책챠챵_3-28" data-name="횁책챌청챙첼챠챠청챕 찾챨횪채챔책챠챵 3" x1="34.78" y1="105.83" x2="35.05" y2="105.83" gradientTransform="translate(-70.92 140.74) rotate(-90)" xlink:href="#_횁책챌청챙첼챠챠청챕_찾챨횪채챔책챠챵_3"/>
    <linearGradient id="_횁책챌청챙첼챠챠청챕_찾챨횪채챔책챠챵_3-29" data-name="횁책챌청챙첼챠챠청챕 찾챨횪채챔책챠챵 3" x1="26.32" y1="116.98" x2="26.59" y2="116.98" gradientTransform="translate(-90.52 143.44) rotate(-90)" xlink:href="#_횁책챌청챙첼챠챠청챕_찾챨횪채챔책챠챵_3"/>
    <linearGradient id="_횁책챌청챙첼챠챠청챕_찾챨횪채챔책챠챵_3-30" data-name="횁책챌청챙첼챠챠청챕 찾챨횪채챔책챠챵 3" x1="4.04" y1="112.69" x2="4.31" y2="112.69" gradientTransform="translate(-108.51 116.86) rotate(-90)" xlink:href="#_횁책챌청챙첼챠챠청챕_찾챨횪채챔책챠챵_3"/>
    <linearGradient id="_횁책챌청챙첼챠챠청챕_찾챨횪채챔책챠챵_3-31" data-name="횁책챌청챙첼챠챠청챕 찾챨횪채챔책챠챵 3" x1="6.81" y1="116.36" x2="7.08" y2="116.36" gradientTransform="translate(-109.42 123.3) rotate(-90)" xlink:href="#_횁책챌청챙첼챠챠청챕_찾챨횪채챔책챠챵_3"/>
    <linearGradient id="_횁책챌청챙첼챠챠청챕_찾챨횪채챔책챠챵_3-32" data-name="횁책챌청챙첼챠챠청챕 찾챨횪채챔책챠챵 3" x1="26.63" y1="89.91" x2="26.91" y2="89.91" gradientTransform="translate(-63.14 116.67) rotate(-90)" xlink:href="#_횁책챌청챙첼챠챠청챕_찾챨횪채챔책챠챵_3"/>
    <linearGradient id="_횁책챌청챙첼챠챠청챕_찾챨횪채챔책챠챵_3-33" data-name="횁책챌청챙첼챠챠청챕 찾챨횪채챔책챠챵 3" x1="25.88" y1="67.88" x2="26.15" y2="67.88" gradientTransform="translate(-41.87 93.89) rotate(-90)" xlink:href="#_횁책챌청챙첼챠챠청챕_찾챨횪채챔책챠챵_3"/>
    <linearGradient id="_횁책챌청챙첼챠챠청챕_찾챨횪채챔책챠챵_3-34" data-name="횁책챌청챙첼챠챠청챕 찾챨횪채챔책챠챵 3" x1="31.68" y1="39.74" x2="31.96" y2="39.74" gradientTransform="translate(-7.92 71.56) rotate(-90)" xlink:href="#_횁책챌청챙첼챠챠청챕_찾챨횪채챔책챠챵_3"/>
    <linearGradient id="_횁책챌청챙첼챠챠청챕_찾챨횪채챔책챠챵_3-35" data-name="횁책챌청챙첼챠챠청챕 찾챨횪채챔책챠챵 3" x1="4.71" y1="11.86" x2="4.98" y2="11.86" gradientTransform="translate(-7.02 16.71) rotate(-90)" xlink:href="#_횁책챌청챙첼챠챠청챕_찾챨횪채챔책챠챵_3"/>
    <linearGradient id="_횁책챌청챙첼챠챠청챕_찾챨횪채챔책챠챵_3-36" data-name="횁책챌청챙첼챠챠청챕 찾챨횪채챔책챠챵 3" x1="3.3" y1="28.47" x2="3.57" y2="28.47" gradientTransform="translate(-25.03 31.9) rotate(-90)" xlink:href="#_횁책챌청챙첼챠챠청챕_찾챨횪채챔책챠챵_3"/>
    <linearGradient id="_횁책챌청챙첼챠챠청챕_찾챨횪채챔책챠챵_3-37" data-name="횁책챌청챙첼챠챠청챕 찾챨횪채챔책챠챵 3" x1="5.7" y1="31.05" x2="5.97" y2="31.05" gradientTransform="translate(-25.22 36.88) rotate(-90)" xlink:href="#_횁책챌청챙첼챠챠청챕_찾챨횪채챔책챠챵_3"/>
    <linearGradient id="_횁책챌청챙첼챠챠청챕_찾챨횪채챔책챠챵_3-38" data-name="횁책챌청챙첼챠챠청챕 찾챨횪채챔책챠챵 3" x1="3.68" y1="34.77" x2="3.96" y2="34.77" gradientTransform="translate(-30.96 38.59) rotate(-90)" xlink:href="#_횁책챌청챙첼챠챠청챕_찾챨횪채챔책챠챵_3"/>
    <linearGradient id="_횁책챌청챙첼챠챠청챕_찾챨횪채챔책챠챵_3-39" data-name="횁책챌청챙첼챠챠청챕 찾챨횪채챔책챠챵 3" x1="6.38" y1="37.62" x2="6.66" y2="37.62" gradientTransform="translate(-31.1 44.14) rotate(-90)" xlink:href="#_횁책챌청챙첼챠챠청챕_찾챨횪채챔책챠챵_3"/>
    <linearGradient id="_횁책챌청챙첼챠챠청챕_찾챨횪채챔책챠챵_3-40" data-name="횁책챌청챙첼챠챠청챕 찾챨횪채챔책챠챵 3" x1="4.05" y1="39.45" x2="4.33" y2="39.45" gradientTransform="translate(-35.26 43.64) rotate(-90)" xlink:href="#_횁책챌청챙첼챠챠청챕_찾챨횪채챔책챠챵_3"/>
    <linearGradient id="_횁책챌청챙첼챠챠청챕_찾챨횪채챔책챠챵_3-41" data-name="횁책챌청챙첼챠챠청챕 찾챨횪채챔책챠챵 3" x1="7.38" y1="45.09" x2="7.65" y2="45.09" gradientTransform="translate(-37.57 52.6) rotate(-90)" xlink:href="#_횁책챌청챙첼챠챠청챕_찾챨횪채챔책챠챵_3"/>
    <linearGradient id="_횁책챌청챙첼챠챠청챕_찾챨횪채챔책챠챵_3-42" data-name="횁책챌청챙첼챠챠청챕 찾챨횪채챔책챠챵 3" x1="2.46" y1="49.6" x2="2.74" y2="49.6" gradientTransform="translate(-47 52.2) rotate(-90)" xlink:href="#_횁책챌청챙첼챠챠청챕_찾챨횪채챔책챠챵_3"/>
    <linearGradient id="_횁책챌청챙첼챠챠청챕_찾챨횪채챔책챠챵_3-43" data-name="횁책챌청챙첼챠챠청챕 찾챨횪채챔책챠챵 3" x1="1.68" y1="54.77" x2="1.96" y2="54.77" gradientTransform="translate(-52.95 56.59) rotate(-90)" xlink:href="#_횁책챌청챙첼챠챠청챕_찾챨횪채챔책챠챵_3"/>
    <linearGradient id="_횁책챌청챙첼챠챠청챕_찾챨횪채챔책챠챵_3-44" data-name="횁책챌청챙첼챠챠청챕 찾챨횪채챔책챠챵 3" x1="3.58" y1="68.11" x2="3.86" y2="68.11" gradientTransform="translate(-64.39 71.83) rotate(-90)" xlink:href="#_횁책챌청챙첼챠챠청챕_찾챨횪채챔책챠챵_3"/>
    <linearGradient id="_횁책챌청챙첼챠챠청챕_찾챨횪채챔책챠챵_3-45" data-name="횁책챌청챙첼챠챠청챕 찾챨횪채챔책챠챵 3" x1="3.06" y1="72.45" x2="3.33" y2="72.45" gradientTransform="translate(-69.25 75.64) rotate(-90)" xlink:href="#_횁책챌청챙첼챠챠청챕_찾챨횪채챔책챠챵_3"/>
    <linearGradient id="_횁책챌청챙첼챠챠청챕_찾챨횪채챔책챠챵_3-46" data-name="횁책챌청챙첼챠챠청챕 찾챨횪채챔책챠챵 3" x1="1.23" y1="75.59" x2="1.5" y2="75.59" gradientTransform="translate(-74.23 76.95) rotate(-90)" xlink:href="#_횁책챌청챙첼챠챠청챕_찾챨횪채챔책챠챵_3"/>
    <linearGradient id="_횁책챌청챙첼챠챠청챕_찾챨횪채챔책챠챵_3-47" data-name="횁책챌청챙첼챠챠청챕 찾챨횪채챔책챠챵 3" x1="3.06" y1="84.24" x2="3.33" y2="84.24" gradientTransform="translate(-81.04 87.43) rotate(-90)" xlink:href="#_횁책챌청챙첼챠챠청챕_찾챨횪채챔책챠챵_3"/>
    <linearGradient id="_횁책챌청챙첼챠챠청챕_찾챨횪채챔책챠챵_3-48" data-name="횁책챌청챙첼챠챠청챕 찾챨횪채챔책챠챵 3" x1="5.59" y1="90.91" x2="5.87" y2="90.91" gradientTransform="translate(-85.18 96.64) rotate(-90)" xlink:href="#_횁책챌청챙첼챠챠청챕_찾챨횪채챔책챠챵_3"/>
    <linearGradient id="_횁책챌청챙첼챠챠청챕_찾챨횪채챔책챠챵_3-49" data-name="횁책챌청챙첼챠챠청챕 찾챨횪채챔책챠챵 3" x1="3.06" y1="102.09" x2="3.33" y2="102.09" gradientTransform="translate(-98.89 105.28) rotate(-90)" xlink:href="#_횁책챌청챙첼챠챠청챕_찾챨횪채챔책챠챵_3"/>
    <linearGradient id="_횁책챌청챙첼챠챠청챕_찾챨횪채챔책챠챵_3-50" data-name="횁책챌청챙첼챠챠청챕 찾챨횪채챔책챠챵 3" x1="6.15" y1="98.47" x2="6.43" y2="98.47" gradientTransform="translate(-92.17 104.76) rotate(-90)" xlink:href="#_횁책챌청챙첼챠챠청챕_찾챨횪채챔책챠챵_3"/>
    <linearGradient id="_횁책챌청챙첼챠챠청챕_찾챨횪채챔책챠챵_3-51" data-name="횁책챌청챙첼챠챠청챕 찾챨횪채챔책챠챵 3" x1="10.31" y1="63.92" x2="10.59" y2="63.92" gradientTransform="translate(-53.47 74.37) rotate(-90)" xlink:href="#_횁책챌청챙첼챠챠청챕_찾챨횪채챔책챠챵_3"/>
  </defs>
  <g id="g" data-name="g">
    <g id="elements">
      <g class="cls-37">
        <g>
          <g class="cls-27">
            <g>
              <path class="cls-48" d="M1.27,75.63h0s6.82-.75,6.82-.75l-4.9-2.43h0s16.16-3.26,16.16-3.26l-7.63-2.28-8.07,1.21h0s1.33-3.23,1.33-3.23h0s6.74,2.02,6.74,2.02l16.11-2.42-15.1-1.27h0s-2.79-3.76-2.79-3.76l-.54,.48,1.04,4.02h0S1.82,54.77,1.82,54.77h0s2.75-2.52,2.75-2.52l-1.97-2.65h0s3.48-2.51,3.48-2.51l-1.97-7.64h0s4.94,5.49,4.94,5.49l6.53-4.71-9.07-2.61h0s11.21,1.06,11.21,1.06l3.47-2.5-17.46-1.35h0s7.5-4.19,7.5-4.19l-5.44,.52h0S24.59,12.49,24.59,12.49l-6.67-1.33L3.47,28.46h0s0,0,0,0L7.7,11.3l-2.89,.55h0S11.65,.02,11.65,.02h0S30.55,9.38,30.55,9.38h0S11.65,.02,11.65,.02L4.81,11.85l2.89-.55,.51-2.06h0s5.04,1,5.04,1l6.48-1.24h0s-1.81,2.17-1.81,2.17l6.67,1.33h0S5.8,31.17,5.8,31.17l5.44-.52,16.71-9.33-1.8-6.86h0s0,0,0,0l9.78,2.41h0s0,0,0,0l-7.97,4.45,1.98,7.55h0l-18.69,1.78-7.5,4.19,17.45,1.35,4.26-3.07h0s0,0,0,0h0s-3.42,3.14-3.42,3.14l4.98,.39h0s1.05,2.91,1.05,2.91l3.83,.16h0s-2.85,2.57-2.85,2.57l.73,2.04h0s-2.27-.65-2.27-.65l-5.6,5.04,8.53,5.77h0s0,0,0,0l-10.24-4.23-1.35,1.21,5.89,10.91h0s0,0,0,0l-8.06-8.96-6.73,6.05,2.8,3.76,15.11,1.27h0s-16.11,2.42-16.11,2.42l7.63,2.28,6.68-1.35h0s.3,.48,.3,.48l1.19-.81h0s.91,4.17,.91,4.17l.17,.28,1.63,.49h0s-1.24,.14-1.24,.14l3.72,5.94h0s-2.84-.26-2.84-.26l1.83,8.34h0s-18.59-9.23-18.59-9.23l-10.01,6.85,3.05,1.51,.09-1.15h0s8.29,5.29,8.29,5.29h0s-8.38-4.14-8.38-4.14l-.43,5.18,22.81-2.29h0s3.84,9.98,3.84,9.98h0s0,0,0,0l-3.92-1.13,1.29,5.87h0s-20.55-4.33-20.55-4.33c-.83,.43-1.57,.82-2.22,1.16-.4,.21-.77,.4-1.11,.58-.21,1.32-.49,3.05-.76,4.76-.32,2.07-.58,3.73-.75,4.93-.21,1.5-.3,2.27-.26,2.3,0,0,0,0,0,0,.11-.05,8.49-1.96,15.49-3.55,7.59-1.72,15.25-3.45,15.32-3.47h0s-23.21,8.36-23.21,8.36h0l-4.02-.7,7.5,1.44,14.14-5.31h0s-.46,3.48-.46,3.48h0l-9.25,2.68,6.84,1.32h0s-.82,1.64-.82,1.64l3.81-.42h0s-4.91,2.62-4.91,2.62l-.97,1.95h0l-1.6-.58-3.69,1.97h0s-1.91-1.31-1.91-1.31l-9.66-2.17h0s5.6-.61,5.6-.61l-5.34-3.66h0s5.35,3.66,5.35,3.66l2.87-.31-4.34-1.56h0s4.79-1.39,4.79-1.39l-2.5-1.24h0s2.05-.77,2.05-.77l-7.55-1.45h0s4.07,.71,4.07,.71l23.2-8.35c-.27,.06-7.83,1.77-15.32,3.47-7,1.59-15.38,3.49-15.49,3.55,0,0,0,0,0,0-.01,0-.01-.07,0-.18,0-.11,.02-.27,.05-.47,.04-.38,.12-.93,.22-1.64,.17-1.2,.42-2.85,.75-4.93,.27-1.72,.54-3.44,.76-4.76-1.71,.9-2.59,1.37-2.6,1.4,0,0,0,0,0,0,0,0,0,0,.02-.13,.02-.08,.04-.2,.07-.36,.06-.29,.15-.72,.27-1.28,.2-.93,.49-2.23,.85-3.87,.61-2.78,1.24-5.59,1.25-5.62h0s.43-5.18,.43-5.18l-3.05-1.51h0s10.01-6.85,10.01-6.85l-1.62-.8-10.24-.94Zm6.83-.75l-6.82,.75,10.22,.94-3.4-1.69Zm-3.52-22.63l-2.75,2.52,8.62,9.18-1.04-4.01-1.34,1.21h0s-.16-4.43-.16-4.43l-3.33-4.47Zm1.51-5.16l-3.48,2.51,1.97,2.65,2.29-2.1-.79-3.06Zm13.28,22.1l-16.16,3.26,4.9,2.43,10.32-1.13,4.92-3.36-3.98-1.19Zm-13.63,21.72s-.64,2.85-1.25,5.61c-.36,1.63-.65,2.93-.85,3.87-.12,.56-.21,.99-.27,1.28-.08,.37-.1,.48-.1,.49h0s0,0,0,0c.02-.03,.89-.5,2.6-1.4,.23-1.4,.38-2.35,.38-2.37h0s0,0,0,0l2.95,.62c1.63-.85,3.6-1.87,5.86-3.05,.98-.51,1.96-1.02,2.92-1.51l-12.25-3.53h0ZM7.7,11.3L3.47,28.46,17.91,11.16l-4.67-.93-5.55,1.06Zm-2.71,53.59l-1.33,3.23,8.07-1.21-6.74-2.02h0Zm4.06-19.94l-4.94-5.49,1.97,7.63,1.44-1.04-.04-1.06h0s.96,.4,.96,.4l.6-.43Zm-2.18,5.2l-2.29,2.1,3.33,4.47-.11-2.98-.93-3.58Zm21.68,38.47l-22.81,2.29,12.25,3.53c4.7-2.44,8.77-4.54,8.82-4.57h0s0,0,0,0l1.67,7.59,3.92,1.13-3.84-9.98h0Zm-22.29,9.77s-.16,.98-.38,2.37c.34-.18,.71-.37,1.11-.58,.66-.34,1.4-.73,2.22-1.16l-2.95-.62h0Zm1.27-52.34l-1.44,1.04,.79,3.06,.77-.71-.12-3.39Zm-1.27,38.53l-.09,1.15,8.37,4.14-8.28-5.29Zm11.47-45.89l-11.21-1.06,9.06,2.61,2.15-1.55Zm-10.08,10.75l-.77,.71,.93,3.58-.15-4.29Zm.8-4.05l-.96-.4,.04,1.06,.92-.66Zm0,0l-.92,.67,.12,3.39,2.99-2.73-.6-.66-1.59-.66Zm2.18,1.32l-2.99,2.74,.15,4.29,1.13,4.36,1.02,1.37,6.73-6.05-6.04-6.71ZM8.21,9.23l-.51,2.06,5.54-1.06-5.03-1h0Zm.71,48.86l-1.12-4.35,.11,2.98,1.02,1.37Zm0,0l-1.02-1.37,.16,4.43,1.34-1.21-.48-1.85Zm9.5,15.65l-10.32,1.13,3.4,1.69,2.46,.23,4.46-3.05Zm-9.37-28.8l-.6,.43,1.58,.65-.98-1.09Zm.89,14.51l-1.02-1.37,.48,1.85,.54-.48Zm5.64-19.22l-6.53,4.71,.98,1.09,.91,.38,6.24-5.71-1.6-.46Zm2.4,54.2c-.96,.5-1.94,1.01-2.92,1.52-2.26,1.18-4.23,2.2-5.86,3.05l20.55,4.33-1.29-5.87-10.48-3.03Zm-7.04-48.03l-.91-.38,.59,.66,.31-.29Zm0,0l-.31,.29,6.04,6.71,2.17-1.95-1.23-2.28-6.67-2.76Zm4.7,70.43l-4.79,1.39,4.34,1.56,5.25-.57-4.8-2.37Zm1.54-76.14l-6.24,5.71,6.66,2.76-2.87-5.31h0s0,0,0,0l7.16,4.84,5.6-5.04-10.32-2.97Zm10.77-19.38L11.25,30.65l18.69-1.78-1.98-7.55Zm-14,55.48l-2.46-.23,1.61,.8,.84-.58Zm0,0l-.84,.58,18.59,9.23-1.83-8.34-15.92-1.46Zm1.24,38.04l-2.05,.77,2.5,1.24,3.99-1.15-4.43-.85ZM19.73,9l-6.48,1.24,4.67,.93,1.81-2.17Zm-1.31,64.75l-4.46,3.05,15.92,1.46-1.24-5.64-10.23,1.12Zm3.48-25.04l-7.16-4.84,2.87,5.31,2.58,1.07,1.71-1.54Zm7.44,60.83l-14.14,5.31,4.43,.85,9.25-2.68,.45-3.48ZM17.73,38.7l-2.15,1.55,1.6,.46,2.04-1.87-1.49-.14Zm1.9,76.99l-3.99,1.15,4.8,2.37,5.21-.57,.82-1.64-6.84-1.32Zm-.79-64.23l-2.17,1.95,8.06,8.95-5.89-10.91Zm.38-12.62l-2.04,1.87,10.32,2.97,1.54-1.38-.98-2.73-2.25-.1-6.59-.62Zm.97,11.41l-2.58-1.07,1.23,2.28,1.35-1.21Zm1.01-14.05l-3.47,2.5,1.49,.14,2.82-2.58-.84-.06Zm5.6,53.68c-.07,.04-4.12,2.13-8.82,4.57l10.48,3.02-1.67-7.59Zm-3.46-19.49l-4.92,3.36,10.22-1.12-.15-.7-5.15-1.54Zm-1.3-34.12l-2.82,2.58,6.59,.62,2.25,.1-1.05-2.91-4.98-.39Zm4,31.59l-6.68,1.35,3.98,1.19,3-2.05-.3-.48h0Zm-4.14-19.14l-1.71,1.54,10.23,4.23-8.52-5.77Zm3.56-15.58l-4.25,3.07,.84,.06,3.42-3.13Zm.89,35.2l-3,2.05,5.15,1.54-.05-.24-2.1-3.35Zm9.59-51.46l-9.77-2.41,1.8,6.86,7.97-4.45Zm-8.4,50.65l-1.19,.81,2.1,3.35-.91-4.16h0Zm1.51-25.23l-1.54,1.38,2.27,.65-.73-2.04Zm2.85-2.57l-3.83-.16,.98,2.73,2.85-2.57Zm-3.28,32.24l-.17-.27,.05,.24,.12,.04Zm0,0l-.12-.04,.15,.7,.36-.04-.39-.62Zm1.63,.49l-1.63-.49,.39,.62,1.24-.14Zm-1.24,.14l-.36,.04,1.24,5.64,2.84,.26-3.72-5.94Z"/>
              <path class="cls-43" d="M1.09,75.63l6.94-.76-4.89-2.43h.05s16.09-3.25,16.09-3.25l-7.56-2.26-8.11,1.22,.02-.03,1.34-3.25h.04s6.72,2.02,6.72,2.02l15.95-2.4-14.95-1.25h0s-2.78-3.75-2.78-3.75l-.52,.46,1.05,4.07-.05-.05L1.79,54.77h.01s2.74-2.52,2.74-2.52l-1.98-2.65h.02s3.47-2.51,3.47-2.51l-1.99-7.69h0s0,0,0,0l.05,.05,4.93,5.48,6.49-4.68-9.05-2.6v-.03s.02,0,.02,0l11.21,1.06,3.42-2.47-17.47-1.35,.05-.03,7.42-4.15-5.41,.52,.04-.04L24.55,12.5l-6.63-1.32L3.44,28.53h0s.02-.08,.02-.08L7.68,11.32l-2.9,.55h0s0,0,0,0l.02-.03L11.64,0h0s0,0,0,0h.01S30.57,9.37,30.57,9.37l-.02,.03h-.02S11.66,.05,11.66,.05L4.85,11.82l2.84-.54,.5-2.03h-.03s.03-.03,.03-.03h0s.01,0,.01,0l.03-.02v.02s5.01,1,5.01,1l6.53-1.25-.03,.04-1.79,2.15,6.68,1.33-.03,.02L5.85,31.15l5.39-.51,16.69-9.32-1.81-6.88h.03s9.82,2.43,9.82,2.43l-.04,.02-7.96,4.45,1.98,7.56h0s-.02,0-.02,0l-18.69,1.78-7.44,4.16,17.39,1.35,4.27-3.08,.02,.03h-.01s-3.39,3.12-3.39,3.12l4.95,.38h0s1.04,2.91,1.04,2.91l3.87,.16-.03,.03-2.85,2.56,.74,2.06h0s0,0,0,0h-.03s-2.26-.66-2.26-.66l-5.58,5.01,8.51,5.76h0s0,0,0,0h0s.15,.1,.15,.1l-.16-.07h0s-10.23-4.23-10.23-4.23l-1.33,1.2,5.96,11.03h0s0,0,0,0l-.1-.11-8.05-8.94-6.7,6.03,2.78,3.74,15.26,1.28-.16,.02-16.03,2.41,7.55,2.26,6.65-1.34-.02-.02,.05,.02h0s0,0,0,0l.05,.02h-.03s.28,.45,.28,.45l1.19-.82v.03s.92,4.16,.92,4.16l.17,.27,1.71,.51h0s0,0,0,0h-.09s-1.21,.14-1.21,.14l3.72,5.94h-.04s-2.81-.26-2.81-.26l1.83,8.35h0s0,0,0,0l-.03-.02-18.59-9.22-9.98,6.82,3,1.48,.1-1.16,.03,.02,8.3,5.3-.02,.03h-.02s-8.36-4.14-8.36-4.14l-.42,5.13,22.77-2.28h0s.04,0,.04,0h0s3.85,10.02,3.85,10.02h-.04s-3.89-1.13-3.89-1.13l1.29,5.87h-.03s-20.55-4.34-20.55-4.34c-.82,.43-1.56,.82-2.22,1.16-.4,.21-.77,.4-1.1,.58-.28,1.73-.53,3.33-.76,4.75-.32,2.07-.58,3.73-.75,4.93-.26,1.8-.28,2.21-.27,2.28,.32-.09,5.52-1.28,15.48-3.54,6.99-1.59,13.97-3.16,15.29-3.46h.05s0,.02,0,.02h-.02s-23.21,8.36-23.21,8.36h0l-2.05-.36,5.53,1.06,14.16-5.31v.03s-.46,3.49-.46,3.49h-.01s-9.18,2.66-9.18,2.66l6.79,1.31v.02s-.82,1.61-.82,1.61l3.87-.42-.08,.04-4.91,2.62-.98,1.96h0s0,0,0,0h-.01s-1.6-.58-1.6-.58l-3.69,1.97h0s0,0,0,0h0s-1.91-1.31-1.91-1.31l-9.76-2.19h0s0,0,0,0h.1s5.55-.62,5.55-.62l-5.32-3.65,.02-.03h.01s5.34,3.67,5.34,3.67l2.78-.3-4.32-1.55,.05-.02,4.75-1.37-2.5-1.23h.04s1.99-.76,1.99-.76l-7.5-1.44v-.04s.03,0,.03,0l4.06,.71,22.91-8.25c-2.56,.58-8.83,2-15.03,3.4-10.03,2.27-15.38,3.5-15.48,3.54,0,0-.02,0-.02,0-.01,0-.02-.03-.01-.2,0-.11,.02-.27,.05-.47,.04-.38,.12-.93,.22-1.65,.17-1.2,.42-2.86,.75-4.93,.22-1.4,.48-3.04,.75-4.73-2.07,1.09-2.54,1.35-2.56,1.38,0,0,0,0,0,0h0s0,0,0,0c-.02,0-.02-.01,.01-.15,.02-.08,.04-.2,.07-.36,.06-.29,.15-.72,.27-1.28,.2-.93,.49-2.23,.85-3.87,.54-2.44,1.09-4.9,1.24-5.59h0s-.07-.03-.07-.03h.08s.42-5.16,.42-5.16l-3.07-1.52,.03-.02,9.99-6.83-1.59-.79-10.23-.94h0s-.17-.02-.17-.02Zm7-.73l-6.63,.73,9.94,.91-3.31-1.64Zm-3.52-22.62l-2.73,2.5,8.55,9.12-1.01-3.91-1.35,1.21h0s0,0,0,0l-.16-4.47-3.31-4.45Zm1.5-5.15l-3.44,2.48,1.95,2.62,2.27-2.08-.78-3.02Zm13.29,22.08l-16.11,3.25,4.85,2.4,10.31-1.13,4.88-3.34-3.94-1.18Zm-13.61,21.72c-.06,.25-.65,2.92-1.24,5.59-.36,1.61-.64,2.91-.85,3.87-.12,.56-.21,.99-.27,1.28-.06,.27-.08,.4-.09,.45,.11-.07,.58-.33,2.56-1.37,.22-1.39,.38-2.33,.38-2.36v-.02s.02,0,.02,0l2.94,.62c1.64-.86,3.61-1.88,5.85-3.05,.97-.5,1.93-1,2.88-1.49l-12.18-3.52ZM7.72,11.31L3.51,28.39,17.88,11.18l-4.63-.92-5.53,1.06Zm-2.72,53.6l-1.32,3.19,7.96-1.2-6.64-1.99Zm4.02-19.96l-4.88-5.42,1.95,7.53,1.41-1.02-.04-1.08h0s0,0,0,0l.98,.4,.58-.42Zm-2.16,5.24l-2.26,2.07,3.28,4.41-.1-2.93-.92-3.55Zm21.67,38.46l-22.7,2.27,12.15,3.51c3.91-2.03,7.4-3.84,8.73-4.52l.11-.05v.02s1.67,7.58,1.67,7.58l3.87,1.12-3.82-9.93Zm-22.26,9.77c-.02,.14-.17,1.03-.37,2.31,.33-.17,.69-.36,1.07-.56,.64-.34,1.37-.72,2.18-1.14l-2.88-.61Zm1.24-52.32l-1.41,1.01,.78,3.01,.75-.68-.12-3.34Zm-1.24,38.53l-.09,1.11,8.06,3.99-7.97-5.09Zm11.41-45.9l-10.96-1.04,8.87,2.55,2.1-1.51Zm-10.05,10.77l-.74,.67,.88,3.41-.14-4.08Zm.78-4.09l-.9-.37,.04,1,.87-.63Zm.04,.02l-.91,.65,.12,3.34,2.94-2.7-.58-.65-1.57-.65Zm2.18,1.32l-2.97,2.72,.15,4.29,1.12,4.35,1,1.35,6.7-6.02-6.01-6.68ZM8.22,9.25l-.5,2.02,5.42-1.04-4.92-.98Zm.66,48.75l-1.06-4.1,.1,2.81,.96,1.29Zm.02,.1l-.98-1.32,.15,4.33,1.3-1.17-.48-1.84Zm9.44,15.67l-10.19,1.12,3.35,1.66,2.45,.23,4.39-3Zm-9.3-28.8l-.56,.41,1.48,.61-.92-1.02Zm.87,14.48l-.95-1.28,.45,1.73,.5-.45Zm5.67-19.2l-6.51,4.69,.97,1.07,.89,.37,6.21-5.68-1.56-.45Zm2.4,54.2c-.95,.5-1.93,1-2.91,1.51-2.23,1.16-4.19,2.18-5.81,3.03l20.47,4.32-1.28-5.83-10.47-3.02Zm-7.07-48.04l-.8-.33,.53,.59,.28-.25Zm.04,.02l-.29,.27,6.01,6.68,2.15-1.93-1.22-2.26-6.65-2.75Zm4.69,70.42l-4.73,1.37,4.28,1.53,5.18-.57-4.73-2.34Zm1.55-76.14l-6.21,5.69,6.59,2.73-2.88-5.33h0s0,0,0,0l.06,.04,7.15,4.84,5.57-5-10.28-2.95Zm10.76-19.38L11.33,30.63l18.58-1.77-1.97-7.51Zm-14.04,55.46l-2.31-.21,1.52,.75,.79-.54Zm.06,0l-.81,.55,18.53,9.2-1.82-8.29-15.9-1.46Zm1.23,38.04l-2.01,.75,2.46,1.21,3.91-1.13-4.35-.84ZM19.68,9.02l-6.33,1.21,4.56,.91,1.77-2.12Zm-1.25,64.74l-4.41,3.02,15.84,1.46-1.23-5.6-10.21,1.12Zm3.44-25.06l-7.08-4.79,2.83,5.24,2.56,1.06,1.68-1.51Zm7.44,60.85l-14.05,5.27,4.36,.84,9.24-2.67,.45-3.44ZM17.73,38.72l-2.11,1.52,1.55,.45,2-1.83-1.44-.14Zm1.9,76.99l-3.94,1.14,4.75,2.35,5.19-.57,.8-1.61-6.81-1.31Zm-.79-64.22l-2.14,1.93,7.95,8.83-5.8-10.75Zm.39-12.63l-2.01,1.84,10.28,2.95,1.52-1.37-.97-2.71-2.24-.1-6.58-.62Zm.93,11.39l-2.51-1.04,1.2,2.21,1.31-1.18Zm1.05-14.04l-3.43,2.47,1.43,.14,2.78-2.54-.79-.06Zm5.58,53.69h-.02c-1.01,.53-4.61,2.39-8.74,4.54l10.41,3-1.66-7.54Zm-3.44-19.5l-4.85,3.32,10.13-1.11-.15-.67-5.13-1.54Zm-1.3-34.13l-2.78,2.55,6.55,.62,2.22,.09-1.03-2.87-4.96-.38Zm3.99,31.59l-6.59,1.33,3.9,1.17,2.98-2.04-.29-.46Zm-4.13-19.14l-1.68,1.51,10.04,4.15-8.36-5.66Zm3.31-15.41l-3.96,2.85,.78,.06,3.18-2.91Zm1.12,35.03l-2.95,2.02,5.08,1.52-.05-.21-2.09-3.33Zm9.54-51.48l-9.7-2.39,1.79,6.81,7.91-4.42Zm-8.36,50.68l-1.15,.78,2.03,3.25-.88-4.03Zm1.52-25.23l-1.49,1.34,2.2,.63-.71-1.98Zm2.82-2.58l-3.76-.16,.96,2.68,2.8-2.52Zm-3.28,32.19l-.09-.14,.03,.12,.06,.02Zm.03,.05l-.08-.02,.14,.65,.31-.03-.37-.59Zm1.55,.46l-1.49-.45,.36,.57,1.14-.12Zm-1.16,.16l-.33,.04,1.23,5.6,2.79,.26-3.69-5.9Z"/>
            </g>
            <g>
              <path class="cls-34" d="M1.27,75.63h0s7.65-3.18,7.65-3.18H3.19s2.37-5.5,2.37-5.5l-1.91,1.17h0s-1.83-13.35-1.83-13.35h0s3.17,10.11,3.17,10.11l3.07-3.74h0s-2.49,5.8-2.49,5.8l4.87-2.99h0l17.4,.52-3.1-2.11h0s5.7-7.89,5.7-7.89l-17.76-12.52-.34,.26,2.09,1.65h0s-5.43,.88-5.43,.88l-6.52,4.94h0s1.73-10.24,1.73-10.24h0s3.3,5.54,3.3,5.54l1.5-.24,3.34-2.53-5.79-4.58h-.03s0,0,0,0l-2.77-2.79h0s2.01-3.8,2.01-3.8l-2.25-2.62-.12,.04h0s.12-.08,.12-.08l1.34-16.6h0s.04,.04,.04,.04l3.33-2.6L11.65,.02h0L27.83,2.7h0S11.65,.02,11.65,.02l-3.44,9.21h0s-3.33,2.6-3.33,2.6l.02,.02,13.24,.43,1.8-2.75h0s4.66,2.96,4.66,2.96h0l-6.45-.21-5.12,7.84,1.39,1.42,11.48-7.21h0s-10.18,8.54-10.18,8.54l.88,.89,13.73-4.89,.36-9.52h0s5.26,7.52,5.26,7.52h0s0,0,0,0l-5.61,2-.38,10,2.05,10.59h0s-2.23,4.81-2.23,4.81l.67,10.21h0s0,0,0,0l-5.7,7.89,3.11,2.12h0l-17.4-.52-4.87,2.99-2.37,5.5h5.72l18.97-7.89h0s-9.89,7.89-9.89,7.89h12.25s.66,6.41,.66,6.41l1.74-.34h0s-.94,8.09-.94,8.09h0s-.8-7.74-.8-7.74l-16.18,3.19,13.77,6.57h0s3.88,9.97,3.88,9.97h0s-5.59-8.73-5.59-8.73l-13.18,.63-7.36,7.88,23.44,4.94,5.23,2.41h0s-5.62,4.06-5.62,4.06h0l-14.8-4.34,14.98,12.84h0s0,0,0,0l-17.43-1.44-1.2,1.38-1.6,.96,6.02,5h0s-6.02-5-6.02-5l-2.54,1.52h0s.21-3.45,.21-3.45l-.56-.46h0s-.02-3.64-.02-3.64l-2.19-.5h0s-.88-10.5-.88-10.5h0s3.01,.88,3.01,.88l-.03-4.65h0s0,0,0,0h0s0,0,0,0l7.36-7.88-7.98,.38h0s8.58-1.02,8.58-1.02h0s-.59,.63-.59,.63l13.18-.63h0s5.59,8.72,5.59,8.72l-3.88-9.97-13.77-6.57-11.67,2.3h0s6.18-4.93,6.18-4.93l-7.97-3.8Zm7.65-3.18l-7.65,3.18,7.97,3.8,8.76-6.98H8.92Zm-.87-11.29l-3.07,3.73h0s-3.17-10.11-3.17-10.11l1.83,13.34,1.91-1.17,2.49-5.79Zm-3.86-21.7l-1.73,10.23,6.52-4.94-1.5,.24h0s-3.29-5.54-3.29-5.54Zm5.04,39.98l-6.18,4.92,11.67-2.3-5.49-2.62Zm-2.96,23.61l-3.01-.88,.88,10.49,2.19,.5-.06-10.11ZM3.5,28.39l-.12,.07,.11-.04h0s0,0,0,0v-.03Zm0,0v.03s0,0,0,0l5.33-1.9,1.64-2.51-6.97,4.38Zm5.33-1.87l-5.33,1.9,2.26,2.62h0s-1.98,3.73-1.98,3.73l19.33-4.36-6.52-6.65-3.39,1.21-7.4,6.21h0s3.04-4.65,3.04-4.65Zm-3.99-14.73l-1.34,16.59,6.97-4.38,2.54-3.89L4.9,11.85h-.04s0,0,0,0l.02-.02-.04-.04Zm-1.06,22.98l-.04,.07,2.77,2.79h.03s-.02-.02-.02-.02h0s.02,.02,.02,.02l12.6-.59,4.99-3.78-20.36,1.51h0Zm19.33-4.36L3.79,34.77l20.35-1.51,1.02-.77-2.04-2.08ZM4.88,11.83l-.02,.02h.04s-.02-.02-.02-.02Zm13.26,.45l-13.24-.43,8.12,8.27,5.12-7.84Zm-3.93,77.59l-8.56,1.01,7.97-.38,.59-.63ZM8.84,26.52l-3.04,4.65,7.4-6.2-4.36,1.56Zm5.66,78.93l-8.24-7.06,.03,4.65,8.21,2.41Zm20.42,.28l-5.22-2.41-23.44-4.94,8.24,7.06,14.8,4.34,5.62-4.06Zm-20.42-.28l-8.22-2.41,.06,10.11,1.96,.44,4.84,2.01h0s-1.09,1.25-1.09,1.25l17.43,1.44-14.98-12.84Zm-1.36,10.16l-4.84-2.01-1.96-.44,.02,3.64,.56,.46,.05-.82h0l5.08,.42,1.09-1.25ZM6.54,37.63h-.01s0,0,0,0h0Zm0,0h0l5.79,4.58,.34-.26-6.12-4.32Zm12.6-.59l-12.6,.59,6.12,4.32,6.47-4.9ZM6.92,117.26l-.21,3.45,2.53-1.52-2.33-1.93Zm.05-.82l-.05,.82,2.33,1.93,1.6-.96,1.2-1.38-5.08-.42h0ZM10.48,24.01l-1.64,2.51,4.36-1.56,2.51-2.1-1.3-1.32-3.93,2.47Zm17.41,40.55l-18.96,7.88h9.07l9.89-7.88Zm-15.56-22.35l-3.34,2.53,5.43-.88-2.09-1.65Zm5.67,30.24l-8.76,6.98,5.49,2.62,16.18-3.19-.66-6.41h-12.25ZM13.02,20.12l-2.54,3.89,3.93-2.47-1.39-1.42Zm6.13,16.93l-6.47,4.91,17.76,12.52-3.9-17.77-7.38,.34Zm-3.44-14.18l-2.5,2.1,3.38-1.21-.88-.89Zm10.18-8.53l-11.47,7.21,1.3,1.32,10.18-8.53Zm4.43,4.53l-13.73,4.89,6.52,6.65,6.83-1.54,.38-10Zm-10.38-9.33l-1.8,2.75,6.45,.21-4.65-2.96h0Zm4.2,23.73l-4.99,3.78,7.38-.34-.78-3.56-1.6,.12Zm5.8-4.39l-6.82,1.54,2.04,2.08,4.78-3.62Zm-4.78,3.62l-1.02,.77,1.6-.12-.02-.07-.57-.58Zm4.78-3.62l-4.78,3.62,.57,.58,4.21-4.2Zm0,0l-4.21,4.2,.02,.07h.04s0,0,0,0l1.27,3.54h-.23s.05,.17,.05,.17l2.88,7.41,1.93-4.81-1.74-10.59Zm-4.19,4.27l-.02-.06v.06s.02,0,.02,0Zm0,0h0s.78,3.56,.78,3.56h.3s-1.08-3.56-1.08-3.56Zm.04,0h-.04s1.08,3.55,1.08,3.55h.23s-1.27-3.55-1.27-3.55h0Zm1.04,3.55h-.3s3.9,17.78,3.9,17.78l-.67-10.2-2.88-7.41-.05-.16Zm4.86,2.77h0l-1.92,4.79,2.22-4.79-2.04-10.56,1.74,10.56Zm-1.01-30.11l-.36,9.52,5.61-2-5.26-7.52Zm1.98,69.17l-1.74,.34,.8,7.74,.94-8.08h0Z"/>
              <path class="cls-26" d="M1.22,75.63l.04-.02,7.56-3.14H3.17v-.03s2.35-5.44,2.35-5.44l-1.88,1.15v-.03s-1.84-13.36-1.84-13.36h.03s0,0,0,0l3.16,10.08,3.13-3.81-.05,.12-2.47,5.74,4.83-2.96h0l17.34,.52-3.07-2.09v-.02s5.7-7.88,5.7-7.88l-17.73-12.5-.31,.23,2.1,1.66h-.04s-5.43,.89-5.43,.89l-6.56,4.97v-.05s1.74-10.28,1.74-10.28h0s0,0,0,0l.02,.04,3.29,5.53,1.48-.24,3.32-2.52-5.76-4.56h-.03s0,0,0,0l-2.78-2.8h0s0,0,0,0h0s2.01-3.8,2.01-3.8l-2.24-2.6-.27,.1,.26-.16,1.33-16.51h0s0,0,0,0h0s0-.11,0-.11l.05,.05,3.31-2.59L11.64,0h.02S27.85,2.69,27.85,2.69v.04s-.02,0-.02,0L11.66,.04l-3.44,9.2h0s-3.31,2.59-3.31,2.59l13.22,.43,1.78-2.72h0s.02-.03,.02-.03h.02s4.71,3.01,4.71,3.01h-.07s-6.44-.21-6.44-.21l-5.11,7.82,1.37,1.4,11.48-7.21,.02,.03h-.01s-10.17,8.53-10.17,8.53l.86,.87,13.7-4.89,.36-9.56h0s0,0,0,0l.03,.04,5.27,7.54h-.02s-5.6,2.01-5.6,2.01l-.37,9.97h.06s-.06,.03-.06,.03l2.05,10.59h0s-2.23,4.81-2.23,4.81l.67,10.19h0s0,.01,0,.01v.04s-.02-.02-.02-.02l-5.67,7.86,3.15,2.14h-.07s-17.4-.53-17.4-.53l-4.86,2.98-2.35,5.47h5.69l19.08-7.93h0s0,0,0,0l-.1,.08-9.85,7.86h12.21v.02l.66,6.39,1.75-.34v.03s-.96,8.27-.96,8.27l-.02-.18-.8-7.72-16.11,3.18,13.73,6.55h0s3.89,10,3.89,10h-.03s0,0,0,0l-5.58-8.72-13.16,.63-7.33,7.85,23.41,4.93,5.26,2.42-.03,.02-5.63,4.06h0s0,0,0,0h0s-14.72-4.32-14.72-4.32l14.96,12.82h0s0,0,0,0h-.05s-17.42-1.44-17.42-1.44l-1.2,1.37-1.58,.95,6.02,5-.03,.03h-.01s-6.01-5-6.01-5l-2.56,1.53v-.04s.21-3.44,.21-3.44l-.56-.46h0s-.02-3.64-.02-3.64l-2.19-.5h0s-.88-10.54-.88-10.54h.03s2.99,.88,2.99,.88l-.03-4.59-.09,.06,.07-.09h0s0,0,0,0l-.04-.03h.05s0,0,0,0h0s0,0,0,0h.02s7.32-7.82,7.32-7.82l-7.96,.38v-.04s.01,0,.01,0l8.62-1.02h0s0,0,0,0h0s-.03,.04-.03,.04l-.56,.6,13.15-.63h0s5.48,8.58,5.48,8.58l-3.81-9.79-13.76-6.57-11.74,2.32,.06-.05,6.16-4.91-7.98-3.81Zm7.7-3.16l-7.61,3.16,7.92,3.78,8.71-6.94H8.92Zm-.94-11.2l-3.01,3.66v-.04s-3.11-9.9-3.11-9.9l1.8,13.1,1.88-1.15,2.44-5.67Zm-3.79-21.76l-1.71,10.14,6.42-4.87-1.44,.23h0s-3.27-5.5-3.27-5.5Zm5.04,39.95l-6.11,4.87,11.54-2.28-5.43-2.59Zm-2.98,23.6l-2.98-.87,.88,10.45,2.16,.49-.06-10.07ZM4.86,11.87l-1.33,16.49,6.94-4.36,2.53-3.87L4.89,11.87h-.03Zm3.93,14.69l-5.26,1.87,2.24,2.61h0s0,0,0,0h0s-1.96,3.71-1.96,3.71l19.26-4.35-6.49-6.62-3.37,1.2-7.49,6.28,.07-.1,3.01-4.6Zm1.62-2.49l-6.88,4.32,5.29-1.88,1.59-2.43Zm-6.62,10.72l-.02,.05,2.74,2.76h0s.03,.01,.03,.01l12.59-.59,4.94-3.74-20.28,1.5Zm19.31-4.36l-19.07,4.31,20.1-1.49,1-.75-2.02-2.06Zm-5-18.13l-13.16-.43,8.07,8.22,5.09-7.79Zm-9.26,14.24l-2.96,4.54,7.22-6.06-4.26,1.52Zm5.31,63.36l-7.99,.94,7.44-.36,.55-.59Zm.26,15.51l-8.15-6.98,.03,4.6,8.12,2.38Zm.07,.06l-8.19-2.4,.06,10.07,1.95,.44,4.87,2.02-.02,.02-1.06,1.22,17.33,1.43-14.94-12.8Zm20.39,.27l-5.2-2.4-23.37-4.92,8.19,7.01,14.79,4.34,5.58-4.04Zm-21.77,9.88l-4.81-2-1.93-.44,.02,3.61,.52,.43,.05-.8h.04s5.05,.42,5.05,.42l1.07-1.22Zm5.97-78.55l-12.48,.58,6.07,4.28,6.41-4.86ZM6.94,117.3l-.2,3.38,2.48-1.49-2.28-1.89Zm.05-.84l-.05,.79,2.31,1.92,1.58-.95,1.18-1.35-5.02-.41ZM12.64,41.95l-5.57-3.93,5.26,4.16,.31-.23Zm-2.15-17.93l-1.61,2.46,4.31-1.54,2.49-2.09-1.27-1.3-3.92,2.46Zm17.28,40.61l-18.76,7.8h8.98l9.78-7.8Zm-15.44-22.4l-3.27,2.48,5.32-.86-2.04-1.61Zm5.67,30.23l-8.73,6.96,5.46,2.61,16.16-3.19-.66-6.38h-12.22ZM13.02,20.15l-2.48,3.8,3.84-2.41-1.36-1.39Zm6.13,16.91l-6.45,4.89,17.7,12.48-3.89-17.71-7.36,.34Zm-3.44-14.18l-2.41,2.02,3.26-1.16-.85-.86Zm9.96-8.4l-11.23,7.05,1.27,1.29,9.96-8.35Zm4.63,4.4l-13.67,4.87,6.5,6.62,6.8-1.54,.37-9.96Zm-10.35-9.34l-1.77,2.71,6.35,.21-4.58-2.91Zm4.21,23.72l-4.94,3.74,7.3-.34-.77-3.52-1.58,.12Zm5.71-4.38l-6.71,1.51,2.01,2.05,4.7-3.56Zm-4.7,3.61l-.95,.72,1.52-.11v-.05s-.56-.56-.56-.56Zm4.58-3.47l-4.54,3.44,.54,.55,4-3.99Zm.2-.14l-4.18,4.17v.05s.05,0,.05,0h0s1.28,3.58,1.28,3.58h-.24s.04,.15,.04,.15l2.86,7.37,1.91-4.76-1.74-10.55Zm-2.9,7.76l-1.25-3.47,1.06,3.48h.19Zm-.23,0l-.95-3.14,.69,3.15h.26Zm.01,.02h-.26s3.85,17.52,3.85,17.52l-.66-9.96-2.88-7.41-.05-.15Zm4.89,2.75h0s-1.66,4.16-1.66,4.16l1.93-4.17-1.79-9.26,1.52,9.27Zm-1.01-30.06l-.35,9.44,5.57-1.98-5.21-7.45Zm1.94,69.14l-1.7,.34,.78,7.55,.91-7.89Z"/>
            </g>
            <g>
              <path class="cls-38" d="M4.78,11.84h0s17.11-1.63,17.11-1.63l-1.07-1.07-.89,.4h0S11.75,.07,11.75,.07h0s9.07,9.06,9.07,9.06l8.5-3.83h0s-8.5,3.83-8.5,3.83l1.07,1.07,8.65-.82h0s-4.39,5.08-4.39,5.08h0s-4.26-4.25-4.26-4.25l-17.1,1.63,31.14,5.03h0S5.99,31.05,5.99,31.05l19.73,2.13h0s6.18,6.54,6.18,6.54h0s-24.41,5.27-24.41,5.27h0s24.41-5.27,24.41-5.27l-6.18-6.54-19.73-2.13h0s29.94-14.18,29.94-14.18L4.79,11.84h0Zm16.04-2.7L11.76,.08l8.17,9.45,.89-.4Zm9.72,.25l-8.65,.82,4.26,4.25,4.39-5.08Z"/>
              <path class="cls-46" d="M4.64,11.83h.14s17.07-1.64,17.07-1.64l-1.04-1.03-.89,.4h0S11.73,.07,11.73,.07l.03-.02h.01s9.06,9.06,9.06,9.06l8.51-3.83v.03s0,0,0,0l-8.48,3.81,1.05,1.05,8.69-.83-.03,.03-4.41,5.09h0s0,0,0,0h-.01s-4.25-4.26-4.25-4.26l-16.95,1.62,31.06,5.02-.05,.03L6.05,31.04l19.67,2.12h0s6.21,6.57,6.21,6.57h-.04s-24.42,5.28-24.42,5.28v-.04s0,0,0,0l24.37-5.26-6.15-6.51-19.79-2.13h0s0,0,0,0l.06-.03,29.89-14.16L4.64,11.83Zm16.15-2.7L12.1,.45l7.84,9.06,.85-.38Zm9.71,.28l-8.56,.82,4.22,4.21,4.35-5.03Z"/>
            </g>
            <g>
              <path class="cls-9" d="M1.36,75.59h0s30.34,11.01,30.34,11.01L3.19,72.45h0s0,0,0,0l21.65-10.09-12.88-7.29-1.53,8.9h0s-7.97-14.27-7.97-14.27h0s0,0,0,0l9.5,5.38,1.74-10.17-6.24,.24h0s-.95-7.51-.95-7.51h0s.95,7.51,.95,7.51l6.24-.24,.21-1.2h0l15.84,.57h0s-16.05,.63-16.05,.63l-1.74,10.17,12.88,7.29h0S3.2,72.45,3.2,72.45l28.51,14.15h0s0,0,0,0h0S1.37,75.59,1.37,75.59c.17,.13,7.85,5.85,15.43,11.5,4.48,3.34,8.06,6,10.63,7.9,3,2.22,4.62,3.42,4.85,3.57,.02,0,.02,.01,.03,.01h0s0,0-.03-.01c-.21-.09-1.62-.51-4.19-1.26-2.22-.65-5.3-1.53-9.16-2.63-6.51-1.86-13.08-3.72-13.28-3.77l24.12,12.45h0s0,0,0,0l-23.5-4.95,.6,14.96,22.63,4.94h0s-22.63-4.94-22.63-4.94l.12,3.09h0s-2.86-3.69-2.86-3.69h0s2.74,.6,2.74,.6l-.6-14.96h0s0,0,0,0l23.5,4.95-24.12-12.45h0s0,0,0,0c.07,.02,6.71,1.9,13.29,3.78,3.86,1.1,6.94,1.99,9.16,2.63,1.32,.38,2.34,.68,3.04,.9,.66,.2,1.04,.32,1.15,.37-.08-.05-.35-.24-1.31-.96-.81-.59-1.99-1.47-3.51-2.6-2.57-1.9-6.14-4.56-10.63-7.9-7.64-5.69-15.37-11.46-15.45-11.51h0Zm10.6-20.53l-9.5-5.38,7.97,14.27,1.53-8.89Zm-5.11,58.28l-2.74-.6,2.86,3.69-.12-3.09ZM13.91,43.7l-.21,1.2,16.04-.63-15.83-.57h0Zm18.38,54.88h0s0,0-.02-.01c.01,0,.02,.01,.02,.01Z"/>
              <path class="cls-24" d="M1.24,75.53l.13,.05,30.03,10.9L3.15,72.45l21.65-10.09-12.82-7.26-1.53,8.92-.03-.04L2.41,49.64l.06,.03,9.48,5.36,1.74-10.12-6.24,.24v-.02s-.96-7.53-.96-7.53h.04s0,.01,0,.01l.95,7.49,6.21-.24,.2-1.16h-.03s.03-.03,.03-.03h0s.01,0,.01,0l.03-.03v.03s15.83,.57,15.83,.57v.04h-.02s-16.03,.63-16.03,.63l-1.74,10.14,12.9,7.3h-.03S3.24,72.45,3.24,72.45l28.5,14.14v.03s-.03,0-.03,0L1.48,75.65h0c1.92,1.43,8.69,6.48,15.33,11.43,4.49,3.34,8.06,6,10.63,7.9,2.99,2.22,4.62,3.42,4.84,3.57,.02,0,.03,.01,.03,.02h0s0,.02,0,.02h0s-.01,.01-.01,.01c-.01,0-.02,0-.04-.02-.2-.09-1.61-.51-4.19-1.26-2.23-.65-5.31-1.53-9.16-2.63-5.97-1.7-12.01-3.41-13.11-3.72l24.09,12.44-.14-.03-23.48-4.95,.59,14.92,22.64,4.94v.04s-.03,0-.03,0l-22.61-4.94,.12,3.12-.04-.05-2.9-3.73h.05s2.72,.61,2.72,.61l-.6-14.96h.02s23.37,4.93,23.37,4.93l-24.16-12.47h0s0,0,0,0l.24,.07c1.64,.46,7.45,2.11,13.22,3.76,3.86,1.1,6.94,1.99,9.16,2.63,1.32,.38,2.34,.68,3.04,.9,.49,.15,.83,.26,1.02,.32-.2-.14-.6-.43-1.2-.88-.81-.6-1.99-1.47-3.51-2.6-2.57-1.91-6.15-4.57-10.63-7.9-6.93-5.16-14.04-10.46-15.39-11.47l-.17-.12Zm10.7-20.45l-9.43-5.34,7.91,14.17,1.51-8.83Zm-5.11,58.29l-2.68-.58,2.8,3.6-.12-3.02ZM13.93,43.72l-.2,1.16,15.52-.61-15.33-.55Z"/>
            </g>
          </g>
          <g>
            <polygon class="cls-15" points="16.36 67.66 16.36 67.66 16.37 67.65 16.37 67.66 16.36 67.66"/>
            <rect class="cls-13" x="25.88" y="14.18" width=".27" height=".27" transform="translate(40.34 -11.7) rotate(90)"/>
            <rect class="cls-12" x="24.42" y="12.37" width=".27" height=".27" transform="translate(37.06 -12.05) rotate(90)"/>
            <rect class="cls-39" x="30.42" y="9.25" width=".27" height=".27" transform="translate(39.94 -21.18) rotate(90)"/>
            <rect class="cls-44" x="35.79" y="16.7" width=".27" height=".27" transform="translate(52.77 -19.09) rotate(90)"/>
            <rect class="cls-14" x="29.75" y="28.69" width=".27" height=".27" transform="translate(58.71 -1.07) rotate(90)"/>
            <rect class="cls-45" x="25.58" y="33.04" width=".27" height=".27" transform="translate(58.89 7.46) rotate(90)"/>
            <rect class="cls-53" x="26.88" y="36.51" width=".27" height=".27" transform="translate(63.66 9.63) rotate(90)"/>
            <rect class="cls-31" x="29.6" y="44.23" width=".27" height=".27" transform="translate(74.1 14.63) rotate(90)"/>
            <rect class="cls-29" x="30.29" y="54.34" width=".27" height=".27" transform="translate(84.9 24.05) rotate(90)"/>
            <rect class="cls-7" x="24.71" y="62.19" width=".27" height=".27" transform="translate(87.16 37.48) rotate(90)"/>
            <rect class="cls-21" x="27.7" y="64.35" width=".27" height=".27" transform="translate(92.32 36.65) rotate(90)"/>
            <rect class="cls-30" x="27.38" y="67.42" width=".27" height=".27" transform="translate(95.08 40.04) rotate(90)"/>
            <rect class="cls-41" x="30.04" y="72.34" width=".27" height=".27" transform="translate(102.66 42.3) rotate(90)"/>
            <rect class="cls-18" x="32.45" y="78.33" width=".27" height=".27" transform="translate(111.06 45.87) rotate(90)"/>
            <rect class="cls-25" x="31.53" y="86.41" width=".27" height=".27" transform="translate(118.21 54.88) rotate(90)"/>
            <rect class="cls-54" x="28.39" y="88.43" width=".27" height=".27" transform="translate(117.09 60.04) rotate(90)"/>
            <rect class="cls-5" x="32.24" y="98.44" width=".27" height=".27" transform="translate(130.96 66.2) rotate(90)"/>
            <rect class="cls-28" x="29.62" y="103.21" width=".27" height=".27" transform="translate(133.1 73.59) rotate(90)"/>
            <rect class="cls-3" x="34.78" y="105.69" width=".27" height=".27" transform="translate(140.74 70.92) rotate(90)"/>
            <rect class="cls-1" x="26.32" y="116.85" width=".27" height=".27" transform="translate(143.44 90.52) rotate(90)"/>
            <rect class="cls-49" x="4.04" y="112.55" width=".27" height=".27" transform="translate(116.86 108.51) rotate(90)"/>
            <rect class="cls-51" x="6.81" y="116.22" width=".27" height=".27" transform="translate(123.3 109.42) rotate(90)"/>
            <rect class="cls-17" x="26.63" y="89.77" width=".27" height=".27" transform="translate(116.67 63.14) rotate(90)"/>
            <rect class="cls-16" x="25.88" y="67.74" width=".27" height=".27" transform="translate(93.89 41.87) rotate(90)"/>
            <rect class="cls-22" x="31.68" y="39.6" width=".27" height=".27" transform="translate(71.56 7.92) rotate(90)"/>
            <rect class="cls-6" x="4.71" y="11.73" width=".27" height=".27" transform="translate(16.71 7.02) rotate(90)"/>
            <rect class="cls-19" x="3.3" y="28.33" width=".27" height=".27" transform="translate(31.9 25.03) rotate(90)"/>
            <rect class="cls-20" x="5.7" y="30.91" width=".27" height=".27" transform="translate(36.88 25.22) rotate(90)"/>
            <rect class="cls-4" x="3.68" y="34.64" width=".27" height=".27" transform="translate(38.59 30.96) rotate(90)"/>
            <rect class="cls-36" x="6.38" y="37.48" width=".27" height=".27" transform="translate(44.14 31.1) rotate(90)"/>
            <rect class="cls-2" x="4.05" y="39.32" width=".27" height=".27" transform="translate(43.64 35.26) rotate(90)"/>
            <rect class="cls-10" x="7.36" y="44.95" width=".31" height=".27" transform="translate(52.6 37.57) rotate(90)"/>
            <rect class="cls-23" x="2.45" y="49.47" width=".31" height=".27" transform="translate(52.2 47) rotate(90)"/>
            <rect class="cls-50" x="1.66" y="54.64" width=".31" height=".27" transform="translate(56.59 52.95) rotate(90)"/>
            <rect class="cls-8" x="3.56" y="67.97" width=".31" height=".27" transform="translate(71.83 64.39) rotate(90)"/>
            <rect class="cls-11" x="3.04" y="72.31" width=".31" height=".27" transform="translate(75.64 69.25) rotate(90)"/>
            <rect class="cls-33" x="1.21" y="75.45" width=".31" height=".27" transform="translate(76.95 74.23) rotate(90)"/>
            <rect class="cls-47" x="3.04" y="84.1" width=".31" height=".27" transform="translate(87.43 81.04) rotate(90)"/>
            <rect class="cls-42" x="5.58" y="90.77" width=".31" height=".27" transform="translate(96.64 85.18) rotate(90)"/>
            <rect class="cls-52" x="3.04" y="101.95" width=".31" height=".27" transform="translate(105.28 98.89) rotate(90)"/>
            <rect class="cls-35" x="6.14" y="98.33" width=".31" height=".27" transform="translate(104.76 92.17) rotate(90)"/>
            <rect class="cls-32" x="10.3" y="63.78" width=".31" height=".27" transform="translate(74.37 53.47) rotate(90)"/>
          </g>
        </g>
      </g>
    </g>
  </g>
</svg>